<svg width="584" height="220" viewBox="0 0 584 220" fill="none" xmlns="http://www.w3.org/2000/svg">
<path d="M278 18C278 16.8954 278.895 16 280 16H566C567.105 16 568 16.8954 568 18V66C568 67.1046 567.105 68 566 68H280C278.895 68 278 67.1046 278 66V18Z" fill="#292929"/>
<path fill-rule="evenodd" clip-rule="evenodd" d="M304 50C308.418 50 312 46.4183 312 42C312 37.5817 308.418 34 304 34C299.582 34 296 37.5817 296 42C296 46.4183 299.582 50 304 50ZM307.707 40.7071C308.098 40.3166 308.098 39.6834 307.707 39.2929C307.317 38.9024 306.683 38.9024 306.293 39.2929L303 42.5858L301.707 41.2929C301.317 40.9024 300.683 40.9024 300.293 41.2929C299.902 41.6834 299.902 42.3166 300.293 42.7071L302.293 44.7071C302.683 45.0976 303.317 45.0976 303.707 44.7071L307.707 40.7071Z" fill="#CFCFCF"/>
<path d="M332.214 44.4365C332.214 43.999 332.059 43.6618 331.749 43.4248C331.444 43.1878 330.89 42.9486 330.088 42.707C329.286 42.4655 328.648 42.1966 328.174 41.9004C327.267 41.3307 326.813 40.5879 326.813 39.6719C326.813 38.8698 327.139 38.209 327.791 37.6895C328.447 37.1699 329.297 36.9102 330.341 36.9102C331.034 36.9102 331.651 37.0378 332.193 37.293C332.736 37.5482 333.162 37.9128 333.472 38.3867C333.782 38.8561 333.937 39.3779 333.937 39.9521H332.214C332.214 39.4326 332.05 39.027 331.722 38.7354C331.398 38.4391 330.933 38.291 330.327 38.291C329.762 38.291 329.322 38.4118 329.008 38.6533C328.698 38.8949 328.543 39.2321 328.543 39.665C328.543 40.0296 328.712 40.335 329.049 40.5811C329.386 40.8226 329.942 41.0596 330.717 41.292C331.492 41.5199 332.114 41.7819 332.583 42.0781C333.052 42.3698 333.396 42.707 333.615 43.0898C333.834 43.4681 333.943 43.9124 333.943 44.4229C333.943 45.2523 333.624 45.9131 332.986 46.4053C332.353 46.8929 331.492 47.1367 330.402 47.1367C329.682 47.1367 329.019 47.0046 328.413 46.7402C327.812 46.4714 327.342 46.1022 327.005 45.6328C326.672 45.1634 326.506 44.6165 326.506 43.9922H328.235C328.235 44.5573 328.422 44.9948 328.796 45.3047C329.17 45.6146 329.705 45.7695 330.402 45.7695C331.004 45.7695 331.455 45.6488 331.756 45.4072C332.061 45.1611 332.214 44.8376 332.214 44.4365ZM334.989 43.2334C334.989 42.5088 335.133 41.8571 335.42 41.2783C335.707 40.695 336.11 40.2484 336.63 39.9385C337.149 39.624 337.746 39.4668 338.421 39.4668C339.419 39.4668 340.228 39.7881 340.848 40.4307C341.472 41.0732 341.809 41.9255 341.859 42.9873L341.866 43.377C341.866 44.1061 341.725 44.7578 341.442 45.332C341.164 45.9062 340.763 46.3506 340.239 46.665C339.72 46.9795 339.118 47.1367 338.435 47.1367C337.391 47.1367 336.555 46.7904 335.926 46.0977C335.301 45.4004 334.989 44.473 334.989 43.3154V43.2334ZM336.65 43.377C336.65 44.138 336.808 44.735 337.122 45.168C337.437 45.5964 337.874 45.8105 338.435 45.8105C338.995 45.8105 339.43 45.5918 339.74 45.1543C340.055 44.7168 340.212 44.0765 340.212 43.2334C340.212 42.486 340.05 41.8936 339.727 41.4561C339.408 41.0186 338.972 40.7998 338.421 40.7998C337.879 40.7998 337.448 41.0163 337.129 41.4492C336.81 41.8776 336.65 42.5202 336.65 43.377ZM344.833 39.6035L344.881 40.376C345.4 39.7699 346.111 39.4668 347.014 39.4668C348.003 39.4668 348.679 39.8451 349.044 40.6016C349.582 39.8451 350.338 39.4668 351.313 39.4668C352.129 39.4668 352.735 39.6924 353.132 40.1436C353.533 40.5947 353.738 41.2601 353.747 42.1396V47H352.086V42.1875C352.086 41.7181 351.983 41.374 351.778 41.1553C351.573 40.9365 351.234 40.8271 350.76 40.8271C350.382 40.8271 350.072 40.9297 349.83 41.1348C349.593 41.3353 349.427 41.5996 349.331 41.9277L349.338 47H347.677V42.1328C347.654 41.2624 347.21 40.8271 346.344 40.8271C345.678 40.8271 345.207 41.0983 344.929 41.6406V47H343.268V39.6035H344.833ZM358.71 47.1367C357.657 47.1367 356.803 46.8063 356.146 46.1455C355.495 45.4801 355.169 44.596 355.169 43.4932V43.2881C355.169 42.5498 355.31 41.8913 355.593 41.3125C355.88 40.7292 356.281 40.2757 356.796 39.9521C357.311 39.6286 357.885 39.4668 358.519 39.4668C359.526 39.4668 360.303 39.7881 360.85 40.4307C361.401 41.0732 361.677 41.9824 361.677 43.1582V43.8281H356.844C356.894 44.4388 357.097 44.9219 357.452 45.2773C357.812 45.6328 358.263 45.8105 358.806 45.8105C359.567 45.8105 360.187 45.5029 360.665 44.8877L361.561 45.7422C361.264 46.1842 360.868 46.5283 360.371 46.7744C359.879 47.016 359.325 47.1367 358.71 47.1367ZM358.512 40.7998C358.056 40.7998 357.687 40.9593 357.404 41.2783C357.126 41.5973 356.949 42.0417 356.871 42.6113H360.036V42.4883C360 41.9323 359.852 41.513 359.592 41.2305C359.332 40.9434 358.972 40.7998 358.512 40.7998ZM365.054 37.8057V39.6035H366.359V40.834H365.054V44.9629C365.054 45.2454 365.108 45.4505 365.218 45.5781C365.332 45.7012 365.532 45.7627 365.819 45.7627C366.011 45.7627 366.204 45.7399 366.4 45.6943V46.9795C366.022 47.0843 365.658 47.1367 365.307 47.1367C364.031 47.1367 363.393 46.4326 363.393 45.0244V40.834H362.176V39.6035H363.393V37.8057H365.054ZM369.271 40.4102C369.814 39.7812 370.5 39.4668 371.329 39.4668C372.906 39.4668 373.706 40.3669 373.729 42.167V47H372.067V42.2285C372.067 41.7181 371.956 41.3581 371.732 41.1484C371.514 40.9342 371.19 40.8271 370.762 40.8271C370.096 40.8271 369.6 41.1234 369.271 41.7158V47H367.61V36.5H369.271V40.4102ZM377.181 47H375.52V39.6035H377.181V47ZM375.417 37.6826C375.417 37.4274 375.497 37.2155 375.656 37.0469C375.82 36.8783 376.053 36.7939 376.354 36.7939C376.654 36.7939 376.887 36.8783 377.051 37.0469C377.215 37.2155 377.297 37.4274 377.297 37.6826C377.297 37.9333 377.215 38.1429 377.051 38.3115C376.887 38.4756 376.654 38.5576 376.354 38.5576C376.053 38.5576 375.82 38.4756 375.656 38.3115C375.497 38.1429 375.417 37.9333 375.417 37.6826ZM380.537 39.6035L380.585 40.458C381.132 39.7972 381.85 39.4668 382.738 39.4668C384.279 39.4668 385.062 40.3486 385.09 42.1123V47H383.429V42.208C383.429 41.7386 383.326 41.3923 383.121 41.1689C382.921 40.9411 382.59 40.8271 382.13 40.8271C381.46 40.8271 380.961 41.1302 380.633 41.7363V47H378.972V39.6035H380.537ZM386.498 43.2471C386.498 42.0986 386.767 41.1826 387.305 40.499C387.847 39.8109 388.565 39.4668 389.458 39.4668C390.301 39.4668 390.964 39.7607 391.447 40.3486L391.522 39.6035H393.02V46.7744C393.02 47.7451 392.716 48.5107 392.11 49.0713C391.509 49.6318 390.695 49.9121 389.67 49.9121C389.128 49.9121 388.597 49.7982 388.077 49.5703C387.562 49.347 387.17 49.0531 386.901 48.6885L387.688 47.6904C388.198 48.2965 388.827 48.5996 389.574 48.5996C390.126 48.5996 390.561 48.4492 390.88 48.1484C391.199 47.8522 391.358 47.4147 391.358 46.8359V46.3369C390.88 46.8701 390.242 47.1367 389.444 47.1367C388.578 47.1367 387.87 46.7926 387.318 46.1045C386.771 45.4163 386.498 44.4639 386.498 43.2471ZM388.152 43.3906C388.152 44.1335 388.303 44.7191 388.604 45.1475C388.909 45.5713 389.33 45.7832 389.868 45.7832C390.538 45.7832 391.035 45.4961 391.358 44.9219V41.668C391.044 41.1074 390.552 40.8271 389.882 40.8271C389.335 40.8271 388.909 41.0436 388.604 41.4766C388.303 41.9095 388.152 42.5475 388.152 43.3906ZM397.928 43.2471C397.928 42.0986 398.197 41.1826 398.734 40.499C399.277 39.8109 399.994 39.4668 400.888 39.4668C401.731 39.4668 402.394 39.7607 402.877 40.3486L402.952 39.6035H404.449V46.7744C404.449 47.7451 404.146 48.5107 403.54 49.0713C402.938 49.6318 402.125 49.9121 401.1 49.9121C400.557 49.9121 400.026 49.7982 399.507 49.5703C398.992 49.347 398.6 49.0531 398.331 48.6885L399.117 47.6904C399.628 48.2965 400.257 48.5996 401.004 48.5996C401.555 48.5996 401.991 48.4492 402.31 48.1484C402.629 47.8522 402.788 47.4147 402.788 46.8359V46.3369C402.31 46.8701 401.672 47.1367 400.874 47.1367C400.008 47.1367 399.299 46.7926 398.748 46.1045C398.201 45.4163 397.928 44.4639 397.928 43.2471ZM399.582 43.3906C399.582 44.1335 399.732 44.7191 400.033 45.1475C400.339 45.5713 400.76 45.7832 401.298 45.7832C401.968 45.7832 402.465 45.4961 402.788 44.9219V41.668C402.474 41.1074 401.981 40.8271 401.312 40.8271C400.765 40.8271 400.339 41.0436 400.033 41.4766C399.732 41.9095 399.582 42.5475 399.582 43.3906ZM405.851 43.2334C405.851 42.5088 405.994 41.8571 406.281 41.2783C406.568 40.695 406.972 40.2484 407.491 39.9385C408.011 39.624 408.608 39.4668 409.282 39.4668C410.28 39.4668 411.089 39.7881 411.709 40.4307C412.333 41.0732 412.671 41.9255 412.721 42.9873L412.728 43.377C412.728 44.1061 412.586 44.7578 412.304 45.332C412.026 45.9062 411.625 46.3506 411.101 46.665C410.581 46.9795 409.979 47.1367 409.296 47.1367C408.252 47.1367 407.416 46.7904 406.787 46.0977C406.163 45.4004 405.851 44.473 405.851 43.3154V43.2334ZM407.512 43.377C407.512 44.138 407.669 44.735 407.983 45.168C408.298 45.5964 408.735 45.8105 409.296 45.8105C409.856 45.8105 410.292 45.5918 410.602 45.1543C410.916 44.7168 411.073 44.0765 411.073 43.2334C411.073 42.486 410.911 41.8936 410.588 41.4561C410.269 41.0186 409.834 40.7998 409.282 40.7998C408.74 40.7998 408.309 41.0163 407.99 41.4492C407.671 41.8776 407.512 42.5202 407.512 43.377ZM413.821 43.2334C413.821 42.5088 413.965 41.8571 414.252 41.2783C414.539 40.695 414.942 40.2484 415.462 39.9385C415.981 39.624 416.578 39.4668 417.253 39.4668C418.251 39.4668 419.06 39.7881 419.68 40.4307C420.304 41.0732 420.641 41.9255 420.691 42.9873L420.698 43.377C420.698 44.1061 420.557 44.7578 420.274 45.332C419.996 45.9062 419.595 46.3506 419.071 46.665C418.552 46.9795 417.95 47.1367 417.267 47.1367C416.223 47.1367 415.387 46.7904 414.758 46.0977C414.133 45.4004 413.821 44.473 413.821 43.3154V43.2334ZM415.482 43.377C415.482 44.138 415.64 44.735 415.954 45.168C416.269 45.5964 416.706 45.8105 417.267 45.8105C417.827 45.8105 418.262 45.5918 418.572 45.1543C418.887 44.7168 419.044 44.0765 419.044 43.2334C419.044 42.486 418.882 41.8936 418.559 41.4561C418.24 41.0186 417.804 40.7998 417.253 40.7998C416.711 40.7998 416.28 41.0163 415.961 41.4492C415.642 41.8776 415.482 42.5202 415.482 43.377ZM421.792 43.2471C421.792 42.1077 422.056 41.194 422.585 40.5059C423.114 39.8132 423.822 39.4668 424.711 39.4668C425.495 39.4668 426.128 39.7402 426.611 40.2871V36.5H428.272V47H426.769L426.687 46.2344C426.19 46.8359 425.527 47.1367 424.697 47.1367C423.831 47.1367 423.13 46.7881 422.592 46.0908C422.059 45.3936 421.792 44.4456 421.792 43.2471ZM423.453 43.3906C423.453 44.1426 423.597 44.7305 423.884 45.1543C424.175 45.5736 424.588 45.7832 425.121 45.7832C425.8 45.7832 426.297 45.4801 426.611 44.874V41.7158C426.306 41.1234 425.814 40.8271 425.135 40.8271C424.597 40.8271 424.182 41.0413 423.891 41.4697C423.599 41.8936 423.453 42.5339 423.453 43.3906ZM435.129 40.4102C435.671 39.7812 436.357 39.4668 437.187 39.4668C438.763 39.4668 439.563 40.3669 439.586 42.167V47H437.925V42.2285C437.925 41.7181 437.813 41.3581 437.59 41.1484C437.371 40.9342 437.048 40.8271 436.619 40.8271C435.954 40.8271 435.457 41.1234 435.129 41.7158V47H433.468V36.5H435.129V40.4102ZM445.69 47C445.618 46.8587 445.554 46.6286 445.499 46.3096C444.97 46.861 444.323 47.1367 443.558 47.1367C442.815 47.1367 442.209 46.9248 441.739 46.501C441.27 46.0771 441.035 45.5531 441.035 44.9287C441.035 44.1403 441.327 43.5365 441.91 43.1172C442.498 42.6934 443.337 42.4814 444.426 42.4814H445.444V41.9961C445.444 41.6133 445.337 41.3079 445.123 41.0801C444.909 40.8477 444.583 40.7314 444.146 40.7314C443.767 40.7314 443.457 40.8271 443.216 41.0186C442.974 41.2054 442.854 41.4447 442.854 41.7363H441.192C441.192 41.3307 441.327 40.9525 441.596 40.6016C441.865 40.2461 442.229 39.9681 442.689 39.7676C443.154 39.5671 443.672 39.4668 444.241 39.4668C445.107 39.4668 445.798 39.6855 446.312 40.123C446.827 40.556 447.092 41.1667 447.105 41.9551V45.291C447.105 45.9564 447.199 46.4873 447.386 46.8838V47H445.69ZM443.865 45.8037C444.193 45.8037 444.501 45.724 444.788 45.5645C445.08 45.4049 445.299 45.1908 445.444 44.9219V43.5273H444.549C443.934 43.5273 443.471 43.6344 443.161 43.8486C442.851 44.0628 442.696 44.3659 442.696 44.7578C442.696 45.0768 442.801 45.332 443.011 45.5234C443.225 45.7103 443.51 45.8037 443.865 45.8037ZM455.322 43.377C455.322 44.5208 455.062 45.4346 454.543 46.1182C454.023 46.7972 453.326 47.1367 452.451 47.1367C451.64 47.1367 450.991 46.8701 450.503 46.3369V49.8438H448.842V39.6035H450.373L450.441 40.3555C450.929 39.763 451.592 39.4668 452.431 39.4668C453.333 39.4668 454.039 39.804 454.55 40.4785C455.065 41.1484 455.322 42.0804 455.322 43.2744V43.377ZM453.668 43.2334C453.668 42.4951 453.52 41.9095 453.224 41.4766C452.932 41.0436 452.513 40.8271 451.966 40.8271C451.287 40.8271 450.799 41.1074 450.503 41.668V44.9492C450.804 45.5234 451.296 45.8105 451.979 45.8105C452.508 45.8105 452.921 45.5986 453.217 45.1748C453.518 44.7464 453.668 44.0993 453.668 43.2334ZM463.211 43.377C463.211 44.5208 462.951 45.4346 462.432 46.1182C461.912 46.7972 461.215 47.1367 460.34 47.1367C459.529 47.1367 458.879 46.8701 458.392 46.3369V49.8438H456.73V39.6035H458.262L458.33 40.3555C458.818 39.763 459.481 39.4668 460.319 39.4668C461.222 39.4668 461.928 39.804 462.438 40.4785C462.953 41.1484 463.211 42.0804 463.211 43.2744V43.377ZM461.557 43.2334C461.557 42.4951 461.409 41.9095 461.112 41.4766C460.821 41.0436 460.401 40.8271 459.854 40.8271C459.175 40.8271 458.688 41.1074 458.392 41.668V44.9492C458.692 45.5234 459.185 45.8105 459.868 45.8105C460.397 45.8105 460.809 45.5986 461.105 45.1748C461.406 44.7464 461.557 44.0993 461.557 43.2334ZM467.88 47.1367C466.827 47.1367 465.973 46.8063 465.316 46.1455C464.665 45.4801 464.339 44.596 464.339 43.4932V43.2881C464.339 42.5498 464.48 41.8913 464.763 41.3125C465.05 40.7292 465.451 40.2757 465.966 39.9521C466.481 39.6286 467.055 39.4668 467.688 39.4668C468.696 39.4668 469.473 39.7881 470.02 40.4307C470.571 41.0732 470.847 41.9824 470.847 43.1582V43.8281H466.014C466.064 44.4388 466.267 44.9219 466.622 45.2773C466.982 45.6328 467.433 45.8105 467.976 45.8105C468.737 45.8105 469.356 45.5029 469.835 44.8877L470.73 45.7422C470.434 46.1842 470.038 46.5283 469.541 46.7744C469.049 47.016 468.495 47.1367 467.88 47.1367ZM467.682 40.7998C467.226 40.7998 466.857 40.9593 466.574 41.2783C466.296 41.5973 466.118 42.0417 466.041 42.6113H469.206V42.4883C469.17 41.9323 469.021 41.513 468.762 41.2305C468.502 40.9434 468.142 40.7998 467.682 40.7998ZM473.684 39.6035L473.731 40.458C474.278 39.7972 474.996 39.4668 475.885 39.4668C477.425 39.4668 478.209 40.3486 478.236 42.1123V47H476.575V42.208C476.575 41.7386 476.473 41.3923 476.268 41.1689C476.067 40.9411 475.737 40.8271 475.276 40.8271C474.606 40.8271 474.107 41.1302 473.779 41.7363V47H472.118V39.6035H473.684ZM483.192 47.1367C482.14 47.1367 481.285 46.8063 480.629 46.1455C479.977 45.4801 479.651 44.596 479.651 43.4932V43.2881C479.651 42.5498 479.793 41.8913 480.075 41.3125C480.362 40.7292 480.763 40.2757 481.278 39.9521C481.793 39.6286 482.368 39.4668 483.001 39.4668C484.008 39.4668 484.785 39.7881 485.332 40.4307C485.883 41.0732 486.159 41.9824 486.159 43.1582V43.8281H481.326C481.376 44.4388 481.579 44.9219 481.935 45.2773C482.295 45.6328 482.746 45.8105 483.288 45.8105C484.049 45.8105 484.669 45.5029 485.147 44.8877L486.043 45.7422C485.747 46.1842 485.35 46.5283 484.854 46.7744C484.361 47.016 483.808 47.1367 483.192 47.1367ZM482.994 40.7998C482.538 40.7998 482.169 40.9593 481.887 41.2783C481.609 41.5973 481.431 42.0417 481.354 42.6113H484.519V42.4883C484.482 41.9323 484.334 41.513 484.074 41.2305C483.814 40.9434 483.454 40.7998 482.994 40.7998ZM487.144 43.2471C487.144 42.1077 487.408 41.194 487.937 40.5059C488.465 39.8132 489.174 39.4668 490.062 39.4668C490.846 39.4668 491.48 39.7402 491.963 40.2871V36.5H493.624V47H492.12L492.038 46.2344C491.541 46.8359 490.878 47.1367 490.049 47.1367C489.183 47.1367 488.481 46.7881 487.943 46.0908C487.41 45.3936 487.144 44.4456 487.144 43.2471ZM488.805 43.3906C488.805 44.1426 488.948 44.7305 489.235 45.1543C489.527 45.5736 489.939 45.7832 490.473 45.7832C491.152 45.7832 491.648 45.4801 491.963 44.874V41.7158C491.658 41.1234 491.165 40.8271 490.486 40.8271C489.949 40.8271 489.534 41.0413 489.242 41.4697C488.951 41.8936 488.805 42.5339 488.805 43.3906Z" fill="white"/>
<path fill-rule="evenodd" clip-rule="evenodd" d="M536.293 36.2929C536.683 35.9024 537.317 35.9024 537.707 36.2929L542 40.5858L546.293 36.2929C546.683 35.9024 547.317 35.9024 547.707 36.2929C548.098 36.6834 548.098 37.3166 547.707 37.7071L543.414 42L547.707 46.2929C548.098 46.6834 548.098 47.3166 547.707 47.7071C547.317 48.0976 546.683 48.0976 546.293 47.7071L542 43.4142L537.707 47.7071C537.317 48.0976 536.683 48.0976 536.293 47.7071C535.902 47.3166 535.902 46.6834 536.293 46.2929L540.586 42L536.293 37.7071C535.902 37.3166 535.902 36.6834 536.293 36.2929Z" fill="#ACACAC"/>
<path d="M221 154C221 152.895 221.895 152 223 152H566C567.105 152 568 152.895 568 154V202C568 203.105 567.105 204 566 204H223C221.895 204 221 203.105 221 202V154Z" fill="#FFEDD5"/>
<path fill-rule="evenodd" clip-rule="evenodd" d="M255 178C255 182.418 251.418 186 247 186C242.582 186 239 182.418 239 178C239 173.582 242.582 170 247 170C251.418 170 255 173.582 255 178ZM248 174C248 174.552 247.552 175 247 175C246.448 175 246 174.552 246 174C246 173.448 246.448 173 247 173C247.552 173 248 173.448 248 174ZM246 177C245.448 177 245 177.448 245 178C245 178.552 245.448 179 246 179V182C246 182.552 246.448 183 247 183H248C248.552 183 249 182.552 249 182C249 181.448 248.552 181 248 181V178C248 177.448 247.552 177 247 177H246Z" fill="#FB923C"/>
<path d="M277.203 174.441H274.1V183H272.384V174.441H269.308V173.047H277.203V174.441ZM279.992 176.41C280.535 175.781 281.22 175.467 282.05 175.467C283.627 175.467 284.426 176.367 284.449 178.167V183H282.788V178.229C282.788 177.718 282.676 177.358 282.453 177.148C282.234 176.934 281.911 176.827 281.482 176.827C280.817 176.827 280.32 177.123 279.992 177.716V183H278.331V172.5H279.992V176.41ZM287.901 183H286.24V175.604H287.901V183ZM286.138 173.683C286.138 173.427 286.217 173.215 286.377 173.047C286.541 172.878 286.773 172.794 287.074 172.794C287.375 172.794 287.607 172.878 287.771 173.047C287.936 173.215 288.018 173.427 288.018 173.683C288.018 173.933 287.936 174.143 287.771 174.312C287.607 174.476 287.375 174.558 287.074 174.558C286.773 174.558 286.541 174.476 286.377 174.312C286.217 174.143 286.138 173.933 286.138 173.683ZM293.862 180.99C293.862 180.694 293.739 180.468 293.493 180.313C293.252 180.159 292.848 180.022 292.283 179.903C291.718 179.785 291.246 179.634 290.868 179.452C290.039 179.051 289.624 178.47 289.624 177.709C289.624 177.071 289.893 176.538 290.431 176.109C290.968 175.681 291.652 175.467 292.481 175.467C293.366 175.467 294.079 175.686 294.621 176.123C295.168 176.561 295.441 177.128 295.441 177.825H293.78C293.78 177.506 293.662 177.242 293.425 177.032C293.188 176.818 292.873 176.711 292.481 176.711C292.117 176.711 291.818 176.795 291.586 176.964C291.358 177.132 291.244 177.358 291.244 177.641C291.244 177.896 291.351 178.094 291.565 178.235C291.78 178.377 292.213 178.52 292.864 178.666C293.516 178.807 294.026 178.978 294.396 179.179C294.769 179.375 295.045 179.612 295.223 179.89C295.405 180.168 295.496 180.505 295.496 180.901C295.496 181.567 295.22 182.107 294.669 182.521C294.118 182.932 293.395 183.137 292.502 183.137C291.896 183.137 291.356 183.027 290.882 182.809C290.408 182.59 290.039 182.289 289.774 181.906C289.51 181.523 289.378 181.111 289.378 180.669H290.991C291.014 181.061 291.162 181.364 291.436 181.578C291.709 181.788 292.071 181.893 292.522 181.893C292.96 181.893 293.293 181.811 293.521 181.646C293.748 181.478 293.862 181.259 293.862 180.99ZM301.997 175.604L302.045 176.376C302.564 175.77 303.275 175.467 304.178 175.467C305.167 175.467 305.843 175.845 306.208 176.602C306.746 175.845 307.502 175.467 308.478 175.467C309.293 175.467 309.899 175.692 310.296 176.144C310.697 176.595 310.902 177.26 310.911 178.14V183H309.25V178.188C309.25 177.718 309.147 177.374 308.942 177.155C308.737 176.937 308.398 176.827 307.924 176.827C307.546 176.827 307.236 176.93 306.994 177.135C306.757 177.335 306.591 177.6 306.495 177.928L306.502 183H304.841V178.133C304.818 177.262 304.374 176.827 303.508 176.827C302.842 176.827 302.371 177.098 302.093 177.641V183H300.432V175.604H301.997ZM317.036 183C316.963 182.859 316.899 182.629 316.845 182.31C316.316 182.861 315.669 183.137 314.903 183.137C314.16 183.137 313.554 182.925 313.085 182.501C312.616 182.077 312.381 181.553 312.381 180.929C312.381 180.14 312.673 179.536 313.256 179.117C313.844 178.693 314.682 178.481 315.771 178.481H316.79V177.996C316.79 177.613 316.683 177.308 316.469 177.08C316.255 176.848 315.929 176.731 315.491 176.731C315.113 176.731 314.803 176.827 314.562 177.019C314.32 177.205 314.199 177.445 314.199 177.736H312.538C312.538 177.331 312.673 176.952 312.941 176.602C313.21 176.246 313.575 175.968 314.035 175.768C314.5 175.567 315.017 175.467 315.587 175.467C316.453 175.467 317.143 175.686 317.658 176.123C318.173 176.556 318.438 177.167 318.451 177.955V181.291C318.451 181.956 318.545 182.487 318.731 182.884V183H317.036ZM315.211 181.804C315.539 181.804 315.847 181.724 316.134 181.564C316.425 181.405 316.644 181.191 316.79 180.922V179.527H315.895C315.279 179.527 314.817 179.634 314.507 179.849C314.197 180.063 314.042 180.366 314.042 180.758C314.042 181.077 314.147 181.332 314.356 181.523C314.571 181.71 314.855 181.804 315.211 181.804ZM322.669 180.621L324.173 175.604H325.943L323.004 184.121C322.553 185.365 321.787 185.987 320.707 185.987C320.465 185.987 320.199 185.946 319.907 185.864V184.579L320.222 184.6C320.641 184.6 320.955 184.522 321.165 184.367C321.379 184.217 321.548 183.962 321.671 183.602L321.91 182.966L319.312 175.604H321.104L322.669 180.621ZM330.079 179.233C330.079 178.509 330.223 177.857 330.51 177.278C330.797 176.695 331.2 176.248 331.72 175.938C332.239 175.624 332.836 175.467 333.511 175.467C334.509 175.467 335.318 175.788 335.938 176.431C336.562 177.073 336.899 177.925 336.949 178.987L336.956 179.377C336.956 180.106 336.815 180.758 336.532 181.332C336.254 181.906 335.853 182.351 335.329 182.665C334.81 182.979 334.208 183.137 333.524 183.137C332.481 183.137 331.645 182.79 331.016 182.098C330.391 181.4 330.079 180.473 330.079 179.315V179.233ZM331.74 179.377C331.74 180.138 331.897 180.735 332.212 181.168C332.526 181.596 332.964 181.811 333.524 181.811C334.085 181.811 334.52 181.592 334.83 181.154C335.145 180.717 335.302 180.076 335.302 179.233C335.302 178.486 335.14 177.894 334.816 177.456C334.497 177.019 334.062 176.8 333.511 176.8C332.968 176.8 332.538 177.016 332.219 177.449C331.9 177.878 331.74 178.52 331.74 179.377ZM342.233 177.121C342.015 177.085 341.789 177.066 341.557 177.066C340.796 177.066 340.283 177.358 340.019 177.941V183H338.357V175.604H339.943L339.984 176.431C340.385 175.788 340.941 175.467 341.652 175.467C341.889 175.467 342.085 175.499 342.24 175.562L342.233 177.121ZM348.331 175.604L348.379 176.376C348.898 175.77 349.609 175.467 350.512 175.467C351.501 175.467 352.177 175.845 352.542 176.602C353.08 175.845 353.836 175.467 354.812 175.467C355.627 175.467 356.233 175.692 356.63 176.144C357.031 176.595 357.236 177.26 357.245 178.14V183H355.584V178.188C355.584 177.718 355.481 177.374 355.276 177.155C355.071 176.937 354.732 176.827 354.258 176.827C353.88 176.827 353.57 176.93 353.328 177.135C353.091 177.335 352.925 177.6 352.829 177.928L352.836 183H351.175V178.133C351.152 177.262 350.708 176.827 349.842 176.827C349.176 176.827 348.705 177.098 348.427 177.641V183H346.766V175.604H348.331ZM363.37 183C363.297 182.859 363.233 182.629 363.179 182.31C362.65 182.861 362.003 183.137 361.237 183.137C360.494 183.137 359.888 182.925 359.419 182.501C358.95 182.077 358.715 181.553 358.715 180.929C358.715 180.14 359.007 179.536 359.59 179.117C360.178 178.693 361.016 178.481 362.105 178.481H363.124V177.996C363.124 177.613 363.017 177.308 362.803 177.08C362.589 176.848 362.263 176.731 361.825 176.731C361.447 176.731 361.137 176.827 360.896 177.019C360.654 177.205 360.533 177.445 360.533 177.736H358.872C358.872 177.331 359.007 176.952 359.275 176.602C359.544 176.246 359.909 175.968 360.369 175.768C360.834 175.567 361.351 175.467 361.921 175.467C362.787 175.467 363.477 175.686 363.992 176.123C364.507 176.556 364.771 177.167 364.785 177.955V181.291C364.785 181.956 364.879 182.487 365.065 182.884V183H363.37ZM361.545 181.804C361.873 181.804 362.181 181.724 362.468 181.564C362.759 181.405 362.978 181.191 363.124 180.922V179.527H362.229C361.613 179.527 361.151 179.634 360.841 179.849C360.531 180.063 360.376 180.366 360.376 180.758C360.376 181.077 360.481 181.332 360.69 181.523C360.905 181.71 361.189 181.804 361.545 181.804ZM369.003 180.621L370.507 175.604H372.277L369.338 184.121C368.887 185.365 368.121 185.987 367.041 185.987C366.799 185.987 366.533 185.946 366.241 185.864V184.579L366.556 184.6C366.975 184.6 367.289 184.522 367.499 184.367C367.713 184.217 367.882 183.962 368.005 183.602L368.244 182.966L365.646 175.604H367.438L369.003 180.621ZM378.266 175.604L378.313 176.458C378.86 175.797 379.578 175.467 380.467 175.467C382.007 175.467 382.791 176.349 382.818 178.112V183H381.157V178.208C381.157 177.739 381.055 177.392 380.85 177.169C380.649 176.941 380.319 176.827 379.858 176.827C379.188 176.827 378.689 177.13 378.361 177.736V183H376.7V175.604H378.266ZM384.206 179.233C384.206 178.509 384.35 177.857 384.637 177.278C384.924 176.695 385.327 176.248 385.847 175.938C386.366 175.624 386.963 175.467 387.638 175.467C388.636 175.467 389.445 175.788 390.064 176.431C390.689 177.073 391.026 177.925 391.076 178.987L391.083 179.377C391.083 180.106 390.942 180.758 390.659 181.332C390.381 181.906 389.98 182.351 389.456 182.665C388.937 182.979 388.335 183.137 387.651 183.137C386.608 183.137 385.771 182.79 385.143 182.098C384.518 181.4 384.206 180.473 384.206 179.315V179.233ZM385.867 179.377C385.867 180.138 386.024 180.735 386.339 181.168C386.653 181.596 387.091 181.811 387.651 181.811C388.212 181.811 388.647 181.592 388.957 181.154C389.271 180.717 389.429 180.076 389.429 179.233C389.429 178.486 389.267 177.894 388.943 177.456C388.624 177.019 388.189 176.8 387.638 176.8C387.095 176.8 386.665 177.016 386.346 177.449C386.027 177.878 385.867 178.52 385.867 179.377ZM394.569 173.806V175.604H395.875V176.834H394.569V180.963C394.569 181.245 394.624 181.451 394.733 181.578C394.847 181.701 395.048 181.763 395.335 181.763C395.526 181.763 395.72 181.74 395.916 181.694V182.979C395.538 183.084 395.173 183.137 394.822 183.137C393.546 183.137 392.908 182.433 392.908 181.024V176.834H391.691V175.604H392.908V173.806H394.569ZM407.127 179.377C407.127 180.525 406.869 181.439 406.354 182.118C405.844 182.797 405.14 183.137 404.242 183.137C403.376 183.137 402.702 182.825 402.219 182.2L402.137 183H400.633V172.5H402.294V176.314C402.772 175.749 403.417 175.467 404.229 175.467C405.131 175.467 405.84 175.802 406.354 176.472C406.869 177.142 407.127 178.078 407.127 179.281V179.377ZM405.466 179.233C405.466 178.431 405.325 177.83 405.042 177.429C404.759 177.028 404.349 176.827 403.812 176.827C403.091 176.827 402.586 177.142 402.294 177.771V180.819C402.59 181.462 403.101 181.783 403.825 181.783C404.345 181.783 404.746 181.59 405.028 181.202C405.311 180.815 405.457 180.229 405.466 179.445V179.233ZM411.782 183.137C410.729 183.137 409.875 182.806 409.219 182.146C408.567 181.48 408.241 180.596 408.241 179.493V179.288C408.241 178.55 408.382 177.891 408.665 177.312C408.952 176.729 409.353 176.276 409.868 175.952C410.383 175.629 410.957 175.467 411.591 175.467C412.598 175.467 413.375 175.788 413.922 176.431C414.473 177.073 414.749 177.982 414.749 179.158V179.828H409.916C409.966 180.439 410.169 180.922 410.524 181.277C410.884 181.633 411.336 181.811 411.878 181.811C412.639 181.811 413.259 181.503 413.737 180.888L414.633 181.742C414.337 182.184 413.94 182.528 413.443 182.774C412.951 183.016 412.397 183.137 411.782 183.137ZM411.584 176.8C411.128 176.8 410.759 176.959 410.477 177.278C410.199 177.597 410.021 178.042 409.943 178.611H413.108V178.488C413.072 177.932 412.924 177.513 412.664 177.23C412.404 176.943 412.044 176.8 411.584 176.8ZM423.95 183C423.877 182.859 423.813 182.629 423.759 182.31C423.23 182.861 422.583 183.137 421.817 183.137C421.075 183.137 420.468 182.925 419.999 182.501C419.53 182.077 419.295 181.553 419.295 180.929C419.295 180.14 419.587 179.536 420.17 179.117C420.758 178.693 421.596 178.481 422.686 178.481H423.704V177.996C423.704 177.613 423.597 177.308 423.383 177.08C423.169 176.848 422.843 176.731 422.405 176.731C422.027 176.731 421.717 176.827 421.476 177.019C421.234 177.205 421.113 177.445 421.113 177.736H419.452C419.452 177.331 419.587 176.952 419.855 176.602C420.124 176.246 420.489 175.968 420.949 175.768C421.414 175.567 421.931 175.467 422.501 175.467C423.367 175.467 424.057 175.686 424.572 176.123C425.087 176.556 425.352 177.167 425.365 177.955V181.291C425.365 181.956 425.459 182.487 425.646 182.884V183H423.95ZM422.125 181.804C422.453 181.804 422.761 181.724 423.048 181.564C423.34 181.405 423.558 181.191 423.704 180.922V179.527H422.809C422.193 179.527 421.731 179.634 421.421 179.849C421.111 180.063 420.956 180.366 420.956 180.758C420.956 181.077 421.061 181.332 421.271 181.523C421.485 181.71 421.77 181.804 422.125 181.804ZM437.082 179.377C437.082 180.525 436.825 181.439 436.31 182.118C435.799 182.797 435.095 183.137 434.197 183.137C433.331 183.137 432.657 182.825 432.174 182.2L432.092 183H430.588V172.5H432.249V176.314C432.728 175.749 433.372 175.467 434.184 175.467C435.086 175.467 435.795 175.802 436.31 176.472C436.825 177.142 437.082 178.078 437.082 179.281V179.377ZM435.421 179.233C435.421 178.431 435.28 177.83 434.997 177.429C434.715 177.028 434.304 176.827 433.767 176.827C433.047 176.827 432.541 177.142 432.249 177.771V180.819C432.545 181.462 433.056 181.783 433.78 181.783C434.3 181.783 434.701 181.59 434.983 181.202C435.266 180.815 435.412 180.229 435.421 179.445V179.233ZM442.899 183C442.826 182.859 442.763 182.629 442.708 182.31C442.179 182.861 441.532 183.137 440.767 183.137C440.024 183.137 439.418 182.925 438.948 182.501C438.479 182.077 438.244 181.553 438.244 180.929C438.244 180.14 438.536 179.536 439.119 179.117C439.707 178.693 440.546 178.481 441.635 178.481H442.653V177.996C442.653 177.613 442.546 177.308 442.332 177.08C442.118 176.848 441.792 176.731 441.354 176.731C440.976 176.731 440.666 176.827 440.425 177.019C440.183 177.205 440.062 177.445 440.062 177.736H438.401C438.401 177.331 438.536 176.952 438.805 176.602C439.074 176.246 439.438 175.968 439.898 175.768C440.363 175.567 440.881 175.467 441.45 175.467C442.316 175.467 443.007 175.686 443.521 176.123C444.036 176.556 444.301 177.167 444.314 177.955V181.291C444.314 181.956 444.408 182.487 444.595 182.884V183H442.899ZM441.074 181.804C441.402 181.804 441.71 181.724 441.997 181.564C442.289 181.405 442.507 181.191 442.653 180.922V179.527H441.758C441.143 179.527 440.68 179.634 440.37 179.849C440.06 180.063 439.905 180.366 439.905 180.758C439.905 181.077 440.01 181.332 440.22 181.523C440.434 181.71 440.719 181.804 441.074 181.804ZM445.743 179.247C445.743 178.108 446.007 177.194 446.536 176.506C447.065 175.813 447.773 175.467 448.662 175.467C449.446 175.467 450.079 175.74 450.562 176.287V172.5H452.224V183H450.72L450.638 182.234C450.141 182.836 449.478 183.137 448.648 183.137C447.783 183.137 447.081 182.788 446.543 182.091C446.01 181.394 445.743 180.446 445.743 179.247ZM447.404 179.391C447.404 180.143 447.548 180.73 447.835 181.154C448.127 181.574 448.539 181.783 449.072 181.783C449.751 181.783 450.248 181.48 450.562 180.874V177.716C450.257 177.123 449.765 176.827 449.086 176.827C448.548 176.827 448.133 177.041 447.842 177.47C447.55 177.894 447.404 178.534 447.404 179.391ZM459.524 173.806V175.604H460.83V176.834H459.524V180.963C459.524 181.245 459.579 181.451 459.688 181.578C459.802 181.701 460.003 181.763 460.29 181.763C460.481 181.763 460.675 181.74 460.871 181.694V182.979C460.493 183.084 460.128 183.137 459.777 183.137C458.501 183.137 457.863 182.433 457.863 181.024V176.834H456.646V175.604H457.863V173.806H459.524ZM463.742 176.41C464.285 175.781 464.97 175.467 465.8 175.467C467.377 175.467 468.176 176.367 468.199 178.167V183H466.538V178.229C466.538 177.718 466.426 177.358 466.203 177.148C465.984 176.934 465.661 176.827 465.232 176.827C464.567 176.827 464.07 177.123 463.742 177.716V183H462.081V172.5H463.742V176.41ZM471.651 183H469.99V175.604H471.651V183ZM469.888 173.683C469.888 173.427 469.967 173.215 470.127 173.047C470.291 172.878 470.523 172.794 470.824 172.794C471.125 172.794 471.357 172.878 471.521 173.047C471.686 173.215 471.768 173.427 471.768 173.683C471.768 173.933 471.686 174.143 471.521 174.312C471.357 174.476 471.125 174.558 470.824 174.558C470.523 174.558 470.291 174.476 470.127 174.312C469.967 174.143 469.888 173.933 469.888 173.683ZM475.008 175.604L475.056 176.458C475.603 175.797 476.32 175.467 477.209 175.467C478.749 175.467 479.533 176.349 479.561 178.112V183H477.899V178.208C477.899 177.739 477.797 177.392 477.592 177.169C477.391 176.941 477.061 176.827 476.601 176.827C475.931 176.827 475.432 177.13 475.104 177.736V183H473.442V175.604H475.008ZM480.969 179.247C480.969 178.099 481.238 177.183 481.775 176.499C482.318 175.811 483.035 175.467 483.929 175.467C484.772 175.467 485.435 175.761 485.918 176.349L485.993 175.604H487.49V182.774C487.49 183.745 487.187 184.511 486.581 185.071C485.979 185.632 485.166 185.912 484.141 185.912C483.598 185.912 483.067 185.798 482.548 185.57C482.033 185.347 481.641 185.053 481.372 184.688L482.158 183.69C482.669 184.297 483.298 184.6 484.045 184.6C484.596 184.6 485.032 184.449 485.351 184.148C485.67 183.852 485.829 183.415 485.829 182.836V182.337C485.351 182.87 484.713 183.137 483.915 183.137C483.049 183.137 482.34 182.793 481.789 182.104C481.242 181.416 480.969 180.464 480.969 179.247ZM482.623 179.391C482.623 180.133 482.773 180.719 483.074 181.147C483.38 181.571 483.801 181.783 484.339 181.783C485.009 181.783 485.506 181.496 485.829 180.922V177.668C485.515 177.107 485.022 176.827 484.353 176.827C483.806 176.827 483.38 177.044 483.074 177.477C482.773 177.91 482.623 178.548 482.623 179.391Z" fill="#C2410C"/>
<path fill-rule="evenodd" clip-rule="evenodd" d="M536.293 172.293C536.683 171.902 537.317 171.902 537.707 172.293L542 176.586L546.293 172.293C546.683 171.902 547.317 171.902 547.707 172.293C548.098 172.683 548.098 173.317 547.707 173.707L543.414 178L547.707 182.293C548.098 182.683 548.098 183.317 547.707 183.707C547.317 184.098 546.683 184.098 546.293 183.707L542 179.414L537.707 183.707C537.317 184.098 536.683 184.098 536.293 183.707C535.902 183.317 535.902 182.683 536.293 182.293L540.586 178L536.293 173.707C535.902 173.317 535.902 172.683 536.293 172.293Z" fill="#FB923C"/>
<path d="M92 86C92 84.8954 92.8954 84 94 84H566C567.105 84 568 84.8954 568 86V134C568 135.105 567.105 136 566 136H94C92.8954 136 92 135.105 92 134V86Z" fill="#FEE2E2"/>
<path fill-rule="evenodd" clip-rule="evenodd" d="M118 118C122.418 118 126 114.418 126 110C126 105.582 122.418 102 118 102C113.582 102 110 105.582 110 110C110 114.418 113.582 118 118 118ZM116.707 107.293C116.317 106.902 115.683 106.902 115.293 107.293C114.902 107.683 114.902 108.317 115.293 108.707L116.586 110L115.293 111.293C114.902 111.683 114.902 112.317 115.293 112.707C115.683 113.098 116.317 113.098 116.707 112.707L118 111.414L119.293 112.707C119.683 113.098 120.317 113.098 120.707 112.707C121.098 112.317 121.098 111.683 120.707 111.293L119.414 110L120.707 108.707C121.098 108.317 121.098 107.683 120.707 107.293C120.317 106.902 119.683 106.902 119.293 107.293L118 108.586L116.707 107.293Z" fill="#EF4444"/>
<path d="M146.214 112.437C146.214 111.999 146.059 111.662 145.749 111.425C145.444 111.188 144.89 110.949 144.088 110.707C143.286 110.465 142.648 110.197 142.174 109.9C141.267 109.331 140.813 108.588 140.813 107.672C140.813 106.87 141.139 106.209 141.791 105.689C142.447 105.17 143.297 104.91 144.341 104.91C145.034 104.91 145.651 105.038 146.193 105.293C146.736 105.548 147.162 105.913 147.472 106.387C147.782 106.856 147.937 107.378 147.937 107.952H146.214C146.214 107.433 146.05 107.027 145.722 106.735C145.398 106.439 144.933 106.291 144.327 106.291C143.762 106.291 143.322 106.412 143.008 106.653C142.698 106.895 142.543 107.232 142.543 107.665C142.543 108.03 142.712 108.335 143.049 108.581C143.386 108.823 143.942 109.06 144.717 109.292C145.492 109.52 146.114 109.782 146.583 110.078C147.052 110.37 147.396 110.707 147.615 111.09C147.834 111.468 147.943 111.912 147.943 112.423C147.943 113.252 147.624 113.913 146.986 114.405C146.353 114.893 145.492 115.137 144.402 115.137C143.682 115.137 143.019 115.005 142.413 114.74C141.812 114.471 141.342 114.102 141.005 113.633C140.672 113.163 140.506 112.617 140.506 111.992H142.235C142.235 112.557 142.422 112.995 142.796 113.305C143.17 113.615 143.705 113.77 144.402 113.77C145.004 113.77 145.455 113.649 145.756 113.407C146.061 113.161 146.214 112.838 146.214 112.437ZM148.989 111.233C148.989 110.509 149.133 109.857 149.42 109.278C149.707 108.695 150.11 108.248 150.63 107.938C151.149 107.624 151.746 107.467 152.421 107.467C153.419 107.467 154.228 107.788 154.848 108.431C155.472 109.073 155.809 109.925 155.859 110.987L155.866 111.377C155.866 112.106 155.725 112.758 155.442 113.332C155.164 113.906 154.763 114.351 154.239 114.665C153.72 114.979 153.118 115.137 152.435 115.137C151.391 115.137 150.555 114.79 149.926 114.098C149.301 113.4 148.989 112.473 148.989 111.315V111.233ZM150.65 111.377C150.65 112.138 150.808 112.735 151.122 113.168C151.437 113.596 151.874 113.811 152.435 113.811C152.995 113.811 153.43 113.592 153.74 113.154C154.055 112.717 154.212 112.076 154.212 111.233C154.212 110.486 154.05 109.894 153.727 109.456C153.408 109.019 152.972 108.8 152.421 108.8C151.879 108.8 151.448 109.016 151.129 109.449C150.81 109.878 150.65 110.52 150.65 111.377ZM158.833 107.604L158.881 108.376C159.4 107.77 160.111 107.467 161.014 107.467C162.003 107.467 162.679 107.845 163.044 108.602C163.582 107.845 164.338 107.467 165.313 107.467C166.129 107.467 166.735 107.692 167.132 108.144C167.533 108.595 167.738 109.26 167.747 110.14V115H166.086V110.188C166.086 109.718 165.983 109.374 165.778 109.155C165.573 108.937 165.234 108.827 164.76 108.827C164.382 108.827 164.072 108.93 163.83 109.135C163.593 109.335 163.427 109.6 163.331 109.928L163.338 115H161.677V110.133C161.654 109.262 161.21 108.827 160.344 108.827C159.678 108.827 159.207 109.098 158.929 109.641V115H157.268V107.604H158.833ZM172.71 115.137C171.657 115.137 170.803 114.806 170.146 114.146C169.495 113.48 169.169 112.596 169.169 111.493V111.288C169.169 110.55 169.31 109.891 169.593 109.312C169.88 108.729 170.281 108.276 170.796 107.952C171.311 107.629 171.885 107.467 172.519 107.467C173.526 107.467 174.303 107.788 174.85 108.431C175.401 109.073 175.677 109.982 175.677 111.158V111.828H170.844C170.894 112.439 171.097 112.922 171.452 113.277C171.812 113.633 172.263 113.811 172.806 113.811C173.567 113.811 174.187 113.503 174.665 112.888L175.561 113.742C175.264 114.184 174.868 114.528 174.371 114.774C173.879 115.016 173.325 115.137 172.71 115.137ZM172.512 108.8C172.056 108.8 171.687 108.959 171.404 109.278C171.126 109.597 170.949 110.042 170.871 110.611H174.036V110.488C174 109.932 173.852 109.513 173.592 109.23C173.332 108.943 172.972 108.8 172.512 108.8ZM179.054 105.806V107.604H180.359V108.834H179.054V112.963C179.054 113.245 179.108 113.451 179.218 113.578C179.332 113.701 179.532 113.763 179.819 113.763C180.011 113.763 180.204 113.74 180.4 113.694V114.979C180.022 115.084 179.658 115.137 179.307 115.137C178.031 115.137 177.393 114.433 177.393 113.024V108.834H176.176V107.604H177.393V105.806H179.054ZM183.271 108.41C183.814 107.781 184.5 107.467 185.329 107.467C186.906 107.467 187.706 108.367 187.729 110.167V115H186.067V110.229C186.067 109.718 185.956 109.358 185.732 109.148C185.514 108.934 185.19 108.827 184.762 108.827C184.096 108.827 183.6 109.123 183.271 109.716V115H181.61V104.5H183.271V108.41ZM191.181 115H189.52V107.604H191.181V115ZM189.417 105.683C189.417 105.427 189.497 105.215 189.656 105.047C189.82 104.878 190.053 104.794 190.354 104.794C190.654 104.794 190.887 104.878 191.051 105.047C191.215 105.215 191.297 105.427 191.297 105.683C191.297 105.933 191.215 106.143 191.051 106.312C190.887 106.476 190.654 106.558 190.354 106.558C190.053 106.558 189.82 106.476 189.656 106.312C189.497 106.143 189.417 105.933 189.417 105.683ZM194.537 107.604L194.585 108.458C195.132 107.797 195.85 107.467 196.738 107.467C198.279 107.467 199.062 108.349 199.09 110.112V115H197.429V110.208C197.429 109.739 197.326 109.392 197.121 109.169C196.921 108.941 196.59 108.827 196.13 108.827C195.46 108.827 194.961 109.13 194.633 109.736V115H192.972V107.604H194.537ZM200.498 111.247C200.498 110.099 200.767 109.183 201.305 108.499C201.847 107.811 202.565 107.467 203.458 107.467C204.301 107.467 204.964 107.761 205.447 108.349L205.522 107.604H207.02V114.774C207.02 115.745 206.716 116.511 206.11 117.071C205.509 117.632 204.695 117.912 203.67 117.912C203.128 117.912 202.597 117.798 202.077 117.57C201.562 117.347 201.17 117.053 200.901 116.688L201.688 115.69C202.198 116.297 202.827 116.6 203.574 116.6C204.126 116.6 204.561 116.449 204.88 116.148C205.199 115.852 205.358 115.415 205.358 114.836V114.337C204.88 114.87 204.242 115.137 203.444 115.137C202.578 115.137 201.87 114.793 201.318 114.104C200.771 113.416 200.498 112.464 200.498 111.247ZM202.152 111.391C202.152 112.133 202.303 112.719 202.604 113.147C202.909 113.571 203.33 113.783 203.868 113.783C204.538 113.783 205.035 113.496 205.358 112.922V109.668C205.044 109.107 204.552 108.827 203.882 108.827C203.335 108.827 202.909 109.044 202.604 109.477C202.303 109.91 202.152 110.548 202.152 111.391ZM218.716 112.71L219.892 107.604H221.512L219.495 115H218.128L216.542 109.921L214.983 115H213.616L211.593 107.604H213.213L214.409 112.655L215.927 107.604H217.178L218.716 112.71ZM225.88 115.137C224.827 115.137 223.973 114.806 223.316 114.146C222.665 113.48 222.339 112.596 222.339 111.493V111.288C222.339 110.55 222.48 109.891 222.763 109.312C223.05 108.729 223.451 108.276 223.966 107.952C224.481 107.629 225.055 107.467 225.688 107.467C226.696 107.467 227.473 107.788 228.02 108.431C228.571 109.073 228.847 109.982 228.847 111.158V111.828H224.014C224.064 112.439 224.267 112.922 224.622 113.277C224.982 113.633 225.433 113.811 225.976 113.811C226.737 113.811 227.356 113.503 227.835 112.888L228.73 113.742C228.434 114.184 228.038 114.528 227.541 114.774C227.049 115.016 226.495 115.137 225.88 115.137ZM225.682 108.8C225.226 108.8 224.857 108.959 224.574 109.278C224.296 109.597 224.118 110.042 224.041 110.611H227.206V110.488C227.17 109.932 227.021 109.513 226.762 109.23C226.502 108.943 226.142 108.8 225.682 108.8ZM231.684 107.604L231.731 108.458C232.278 107.797 232.996 107.467 233.885 107.467C235.425 107.467 236.209 108.349 236.236 110.112V115H234.575V110.208C234.575 109.739 234.473 109.392 234.268 109.169C234.067 108.941 233.737 108.827 233.276 108.827C232.606 108.827 232.107 109.13 231.779 109.736V115H230.118V107.604H231.684ZM240.017 105.806V107.604H241.322V108.834H240.017V112.963C240.017 113.245 240.071 113.451 240.181 113.578C240.295 113.701 240.495 113.763 240.782 113.763C240.974 113.763 241.167 113.74 241.363 113.694V114.979C240.985 115.084 240.62 115.137 240.27 115.137C238.993 115.137 238.355 114.433 238.355 113.024V108.834H237.139V107.604H238.355V105.806H240.017ZM252.581 112.71L253.757 107.604H255.377L253.36 115H251.993L250.407 109.921L248.849 115H247.481L245.458 107.604H247.078L248.274 112.655L249.792 107.604H251.043L252.581 112.71ZM260.36 109.121C260.142 109.085 259.916 109.066 259.684 109.066C258.923 109.066 258.41 109.358 258.146 109.941V115H256.484V107.604H258.07L258.111 108.431C258.512 107.788 259.068 107.467 259.779 107.467C260.016 107.467 260.212 107.499 260.367 107.562L260.36 109.121ZM260.853 111.233C260.853 110.509 260.996 109.857 261.283 109.278C261.57 108.695 261.974 108.248 262.493 107.938C263.013 107.624 263.61 107.467 264.284 107.467C265.282 107.467 266.091 107.788 266.711 108.431C267.335 109.073 267.673 109.925 267.723 110.987L267.729 111.377C267.729 112.106 267.588 112.758 267.306 113.332C267.028 113.906 266.627 114.351 266.103 114.665C265.583 114.979 264.981 115.137 264.298 115.137C263.254 115.137 262.418 114.79 261.789 114.098C261.165 113.4 260.853 112.473 260.853 111.315V111.233ZM262.514 111.377C262.514 112.138 262.671 112.735 262.985 113.168C263.3 113.596 263.737 113.811 264.298 113.811C264.858 113.811 265.294 113.592 265.604 113.154C265.918 112.717 266.075 112.076 266.075 111.233C266.075 110.486 265.913 109.894 265.59 109.456C265.271 109.019 264.836 108.8 264.284 108.8C263.742 108.8 263.311 109.016 262.992 109.449C262.673 109.878 262.514 110.52 262.514 111.377ZM270.676 107.604L270.724 108.458C271.271 107.797 271.988 107.467 272.877 107.467C274.417 107.467 275.201 108.349 275.229 110.112V115H273.567V110.208C273.567 109.739 273.465 109.392 273.26 109.169C273.059 108.941 272.729 108.827 272.269 108.827C271.599 108.827 271.1 109.13 270.771 109.736V115H269.11V107.604H270.676ZM276.637 111.247C276.637 110.099 276.906 109.183 277.443 108.499C277.986 107.811 278.703 107.467 279.597 107.467C280.44 107.467 281.103 107.761 281.586 108.349L281.661 107.604H283.158V114.774C283.158 115.745 282.855 116.511 282.249 117.071C281.647 117.632 280.834 117.912 279.809 117.912C279.266 117.912 278.735 117.798 278.216 117.57C277.701 117.347 277.309 117.053 277.04 116.688L277.826 115.69C278.337 116.297 278.965 116.6 279.713 116.6C280.264 116.6 280.7 116.449 281.019 116.148C281.338 115.852 281.497 115.415 281.497 114.836V114.337C281.019 114.87 280.381 115.137 279.583 115.137C278.717 115.137 278.008 114.793 277.457 114.104C276.91 113.416 276.637 112.464 276.637 111.247ZM278.291 111.391C278.291 112.133 278.441 112.719 278.742 113.147C279.048 113.571 279.469 113.783 280.007 113.783C280.677 113.783 281.174 113.496 281.497 112.922V109.668C281.183 109.107 280.69 108.827 280.021 108.827C279.474 108.827 279.048 109.044 278.742 109.477C278.441 109.91 278.291 110.548 278.291 111.391ZM285.906 113.25C286.216 113.25 286.455 113.339 286.624 113.517C286.793 113.69 286.877 113.909 286.877 114.173C286.877 114.433 286.793 114.649 286.624 114.822C286.455 114.991 286.216 115.075 285.906 115.075C285.61 115.075 285.375 114.991 285.202 114.822C285.029 114.654 284.942 114.437 284.942 114.173C284.942 113.909 285.027 113.69 285.195 113.517C285.364 113.339 285.601 113.25 285.906 113.25ZM294.253 115H292.53V105.047H294.253V115ZM296.803 115V108.834H295.675V107.604H296.803V106.927C296.803 106.106 297.031 105.473 297.486 105.026C297.942 104.58 298.58 104.356 299.4 104.356C299.692 104.356 300.002 104.397 300.33 104.479L300.289 105.778C300.107 105.742 299.895 105.724 299.653 105.724C298.86 105.724 298.464 106.132 298.464 106.947V107.604H299.968V108.834H298.464V115H296.803ZM306.749 105.806V107.604H308.055V108.834H306.749V112.963C306.749 113.245 306.804 113.451 306.913 113.578C307.027 113.701 307.228 113.763 307.515 113.763C307.706 113.763 307.9 113.74 308.096 113.694V114.979C307.717 115.084 307.353 115.137 307.002 115.137C305.726 115.137 305.088 114.433 305.088 113.024V108.834H303.871V107.604H305.088V105.806H306.749ZM310.967 108.41C311.509 107.781 312.195 107.467 313.024 107.467C314.601 107.467 315.401 108.367 315.424 110.167V115H313.763V110.229C313.763 109.718 313.651 109.358 313.428 109.148C313.209 108.934 312.885 108.827 312.457 108.827C311.792 108.827 311.295 109.123 310.967 109.716V115H309.306V104.5H310.967V108.41ZM320.366 115.137C319.313 115.137 318.459 114.806 317.803 114.146C317.151 113.48 316.825 112.596 316.825 111.493V111.288C316.825 110.55 316.966 109.891 317.249 109.312C317.536 108.729 317.937 108.276 318.452 107.952C318.967 107.629 319.541 107.467 320.175 107.467C321.182 107.467 321.959 107.788 322.506 108.431C323.057 109.073 323.333 109.982 323.333 111.158V111.828H318.5C318.55 112.439 318.753 112.922 319.108 113.277C319.468 113.633 319.92 113.811 320.462 113.811C321.223 113.811 321.843 113.503 322.321 112.888L323.217 113.742C322.921 114.184 322.524 114.528 322.027 114.774C321.535 115.016 320.981 115.137 320.366 115.137ZM320.168 108.8C319.712 108.8 319.343 108.959 319.061 109.278C318.783 109.597 318.605 110.042 318.527 110.611H321.692V110.488C321.656 109.932 321.508 109.513 321.248 109.23C320.988 108.943 320.628 108.8 320.168 108.8ZM329.882 115H328.221V107.604H329.882V115ZM328.118 105.683C328.118 105.427 328.198 105.215 328.357 105.047C328.521 104.878 328.754 104.794 329.055 104.794C329.355 104.794 329.588 104.878 329.752 105.047C329.916 105.215 329.998 105.427 329.998 105.683C329.998 105.933 329.916 106.143 329.752 106.312C329.588 106.476 329.355 106.558 329.055 106.558C328.754 106.558 328.521 106.476 328.357 106.312C328.198 106.143 328.118 105.933 328.118 105.683ZM335.843 112.99C335.843 112.694 335.72 112.468 335.474 112.313C335.232 112.159 334.829 112.022 334.264 111.903C333.699 111.785 333.227 111.634 332.849 111.452C332.019 111.051 331.604 110.47 331.604 109.709C331.604 109.071 331.873 108.538 332.411 108.109C332.949 107.681 333.632 107.467 334.462 107.467C335.346 107.467 336.059 107.686 336.602 108.123C337.148 108.561 337.422 109.128 337.422 109.825H335.761C335.761 109.506 335.642 109.242 335.405 109.032C335.168 108.818 334.854 108.711 334.462 108.711C334.097 108.711 333.799 108.795 333.566 108.964C333.339 109.132 333.225 109.358 333.225 109.641C333.225 109.896 333.332 110.094 333.546 110.235C333.76 110.377 334.193 110.52 334.845 110.666C335.496 110.807 336.007 110.978 336.376 111.179C336.75 111.375 337.025 111.612 337.203 111.89C337.385 112.168 337.477 112.505 337.477 112.901C337.477 113.567 337.201 114.107 336.649 114.521C336.098 114.932 335.376 115.137 334.482 115.137C333.876 115.137 333.336 115.027 332.862 114.809C332.388 114.59 332.019 114.289 331.755 113.906C331.491 113.523 331.358 113.111 331.358 112.669H332.972C332.994 113.061 333.143 113.364 333.416 113.578C333.689 113.788 334.052 113.893 334.503 113.893C334.94 113.893 335.273 113.811 335.501 113.646C335.729 113.478 335.843 113.259 335.843 112.99ZM343.075 112.99C343.075 112.694 342.952 112.468 342.706 112.313C342.465 112.159 342.061 112.022 341.496 111.903C340.931 111.785 340.459 111.634 340.081 111.452C339.252 111.051 338.837 110.47 338.837 109.709C338.837 109.071 339.106 108.538 339.644 108.109C340.181 107.681 340.865 107.467 341.694 107.467C342.578 107.467 343.292 107.686 343.834 108.123C344.381 108.561 344.654 109.128 344.654 109.825H342.993C342.993 109.506 342.875 109.242 342.638 109.032C342.401 108.818 342.086 108.711 341.694 108.711C341.33 108.711 341.031 108.795 340.799 108.964C340.571 109.132 340.457 109.358 340.457 109.641C340.457 109.896 340.564 110.094 340.778 110.235C340.993 110.377 341.425 110.52 342.077 110.666C342.729 110.807 343.239 110.978 343.608 111.179C343.982 111.375 344.258 111.612 344.436 111.89C344.618 112.168 344.709 112.505 344.709 112.901C344.709 113.567 344.433 114.107 343.882 114.521C343.33 114.932 342.608 115.137 341.715 115.137C341.109 115.137 340.569 115.027 340.095 114.809C339.621 114.59 339.252 114.289 338.987 113.906C338.723 113.523 338.591 113.111 338.591 112.669H340.204C340.227 113.061 340.375 113.364 340.648 113.578C340.922 113.788 341.284 113.893 341.735 113.893C342.173 113.893 342.506 113.811 342.733 113.646C342.961 113.478 343.075 113.259 343.075 112.99ZM350.643 114.275C350.155 114.85 349.462 115.137 348.564 115.137C347.762 115.137 347.154 114.902 346.739 114.433C346.329 113.963 346.124 113.284 346.124 112.396V107.604H347.785V112.375C347.785 113.314 348.175 113.783 348.954 113.783C349.761 113.783 350.305 113.494 350.588 112.915V107.604H352.249V115H350.684L350.643 114.275ZM357.198 115.137C356.146 115.137 355.291 114.806 354.635 114.146C353.983 113.48 353.657 112.596 353.657 111.493V111.288C353.657 110.55 353.799 109.891 354.081 109.312C354.368 108.729 354.769 108.276 355.284 107.952C355.799 107.629 356.373 107.467 357.007 107.467C358.014 107.467 358.791 107.788 359.338 108.431C359.889 109.073 360.165 109.982 360.165 111.158V111.828H355.332C355.382 112.439 355.585 112.922 355.94 113.277C356.3 113.633 356.752 113.811 357.294 113.811C358.055 113.811 358.675 113.503 359.153 112.888L360.049 113.742C359.753 114.184 359.356 114.528 358.859 114.774C358.367 115.016 357.813 115.137 357.198 115.137ZM357 108.8C356.544 108.8 356.175 108.959 355.893 109.278C355.615 109.597 355.437 110.042 355.359 110.611H358.524V110.488C358.488 109.932 358.34 109.513 358.08 109.23C357.82 108.943 357.46 108.8 357 108.8ZM371.424 111.377C371.424 112.521 371.164 113.435 370.645 114.118C370.125 114.797 369.428 115.137 368.553 115.137C367.742 115.137 367.092 114.87 366.604 114.337V117.844H364.943V107.604H366.475L366.543 108.355C367.031 107.763 367.694 107.467 368.532 107.467C369.435 107.467 370.141 107.804 370.651 108.479C371.166 109.148 371.424 110.08 371.424 111.274V111.377ZM369.77 111.233C369.77 110.495 369.621 109.91 369.325 109.477C369.034 109.044 368.614 108.827 368.067 108.827C367.388 108.827 366.901 109.107 366.604 109.668V112.949C366.905 113.523 367.397 113.811 368.081 113.811C368.61 113.811 369.022 113.599 369.318 113.175C369.619 112.746 369.77 112.099 369.77 111.233ZM376.093 115.137C375.04 115.137 374.186 114.806 373.529 114.146C372.878 113.48 372.552 112.596 372.552 111.493V111.288C372.552 110.55 372.693 109.891 372.976 109.312C373.263 108.729 373.664 108.276 374.179 107.952C374.694 107.629 375.268 107.467 375.901 107.467C376.909 107.467 377.686 107.788 378.232 108.431C378.784 109.073 379.06 109.982 379.06 111.158V111.828H374.227C374.277 112.439 374.479 112.922 374.835 113.277C375.195 113.633 375.646 113.811 376.188 113.811C376.95 113.811 377.569 113.503 378.048 112.888L378.943 113.742C378.647 114.184 378.251 114.528 377.754 114.774C377.262 115.016 376.708 115.137 376.093 115.137ZM375.895 108.8C375.439 108.8 375.07 108.959 374.787 109.278C374.509 109.597 374.331 110.042 374.254 110.611H377.419V110.488C377.382 109.932 377.234 109.513 376.975 109.23C376.715 108.943 376.355 108.8 375.895 108.8ZM384.228 109.121C384.009 109.085 383.783 109.066 383.551 109.066C382.79 109.066 382.277 109.358 382.013 109.941V115H380.352V107.604H381.938L381.979 108.431C382.38 107.788 382.936 107.467 383.646 107.467C383.883 107.467 384.079 107.499 384.234 107.562L384.228 109.121ZM389.423 112.99C389.423 112.694 389.3 112.468 389.054 112.313C388.812 112.159 388.409 112.022 387.844 111.903C387.279 111.785 386.807 111.634 386.429 111.452C385.599 111.051 385.185 110.47 385.185 109.709C385.185 109.071 385.453 108.538 385.991 108.109C386.529 107.681 387.213 107.467 388.042 107.467C388.926 107.467 389.639 107.686 390.182 108.123C390.729 108.561 391.002 109.128 391.002 109.825H389.341C389.341 109.506 389.222 109.242 388.985 109.032C388.748 108.818 388.434 108.711 388.042 108.711C387.677 108.711 387.379 108.795 387.146 108.964C386.919 109.132 386.805 109.358 386.805 109.641C386.805 109.896 386.912 110.094 387.126 110.235C387.34 110.377 387.773 110.52 388.425 110.666C389.076 110.807 389.587 110.978 389.956 111.179C390.33 111.375 390.605 111.612 390.783 111.89C390.965 112.168 391.057 112.505 391.057 112.901C391.057 113.567 390.781 114.107 390.229 114.521C389.678 114.932 388.956 115.137 388.062 115.137C387.456 115.137 386.916 115.027 386.442 114.809C385.968 114.59 385.599 114.289 385.335 113.906C385.071 113.523 384.938 113.111 384.938 112.669H386.552C386.575 113.061 386.723 113.364 386.996 113.578C387.27 113.788 387.632 113.893 388.083 113.893C388.521 113.893 388.853 113.811 389.081 113.646C389.309 113.478 389.423 113.259 389.423 112.99ZM394.276 115H392.615V107.604H394.276V115ZM392.513 105.683C392.513 105.427 392.592 105.215 392.752 105.047C392.916 104.878 393.148 104.794 393.449 104.794C393.75 104.794 393.982 104.878 394.146 105.047C394.311 105.215 394.393 105.427 394.393 105.683C394.393 105.933 394.311 106.143 394.146 106.312C393.982 106.476 393.75 106.558 393.449 106.558C393.148 106.558 392.916 106.476 392.752 106.312C392.592 106.143 392.513 105.933 392.513 105.683ZM400.237 112.99C400.237 112.694 400.114 112.468 399.868 112.313C399.627 112.159 399.223 112.022 398.658 111.903C398.093 111.785 397.621 111.634 397.243 111.452C396.414 111.051 395.999 110.47 395.999 109.709C395.999 109.071 396.268 108.538 396.806 108.109C397.343 107.681 398.027 107.467 398.856 107.467C399.741 107.467 400.454 107.686 400.996 108.123C401.543 108.561 401.816 109.128 401.816 109.825H400.155C400.155 109.506 400.037 109.242 399.8 109.032C399.563 108.818 399.248 108.711 398.856 108.711C398.492 108.711 398.193 108.795 397.961 108.964C397.733 109.132 397.619 109.358 397.619 109.641C397.619 109.896 397.726 110.094 397.94 110.235C398.155 110.377 398.588 110.52 399.239 110.666C399.891 110.807 400.401 110.978 400.771 111.179C401.144 111.375 401.42 111.612 401.598 111.89C401.78 112.168 401.871 112.505 401.871 112.901C401.871 113.567 401.595 114.107 401.044 114.521C400.493 114.932 399.77 115.137 398.877 115.137C398.271 115.137 397.731 115.027 397.257 114.809C396.783 114.59 396.414 114.289 396.149 113.906C395.885 113.523 395.753 113.111 395.753 112.669H397.366C397.389 113.061 397.537 113.364 397.811 113.578C398.084 113.788 398.446 113.893 398.897 113.893C399.335 113.893 399.668 113.811 399.896 113.646C400.123 113.478 400.237 113.259 400.237 112.99ZM405.405 105.806V107.604H406.711V108.834H405.405V112.963C405.405 113.245 405.46 113.451 405.569 113.578C405.683 113.701 405.884 113.763 406.171 113.763C406.362 113.763 406.556 113.74 406.752 113.694V114.979C406.374 115.084 406.009 115.137 405.658 115.137C404.382 115.137 403.744 114.433 403.744 113.024V108.834H402.527V107.604H403.744V105.806H405.405ZM412.132 112.99C412.132 112.694 412.009 112.468 411.763 112.313C411.521 112.159 411.118 112.022 410.553 111.903C409.988 111.785 409.516 111.634 409.138 111.452C408.308 111.051 407.894 110.47 407.894 109.709C407.894 109.071 408.162 108.538 408.7 108.109C409.238 107.681 409.922 107.467 410.751 107.467C411.635 107.467 412.348 107.686 412.891 108.123C413.438 108.561 413.711 109.128 413.711 109.825H412.05C412.05 109.506 411.931 109.242 411.694 109.032C411.457 108.818 411.143 108.711 410.751 108.711C410.386 108.711 410.088 108.795 409.855 108.964C409.628 109.132 409.514 109.358 409.514 109.641C409.514 109.896 409.621 110.094 409.835 110.235C410.049 110.377 410.482 110.52 411.134 110.666C411.785 110.807 412.296 110.978 412.665 111.179C413.039 111.375 413.314 111.612 413.492 111.89C413.674 112.168 413.766 112.505 413.766 112.901C413.766 113.567 413.49 114.107 412.938 114.521C412.387 114.932 411.665 115.137 410.771 115.137C410.165 115.137 409.625 115.027 409.151 114.809C408.677 114.59 408.308 114.289 408.044 113.906C407.78 113.523 407.647 113.111 407.647 112.669H409.261C409.284 113.061 409.432 113.364 409.705 113.578C409.979 113.788 410.341 113.893 410.792 113.893C411.229 113.893 411.562 113.811 411.79 113.646C412.018 113.478 412.132 113.259 412.132 112.99ZM422.069 115.154C423.874 115.154 425.042 114.07 425.206 112.584H423.76C423.571 113.409 422.93 113.896 422.079 113.896C420.822 113.896 420.011 112.847 420.011 111.182C420.011 109.546 420.836 108.517 422.079 108.517C423.024 108.517 423.601 109.114 423.76 109.83H425.206C425.047 108.288 423.79 107.264 422.055 107.264C419.902 107.264 418.51 108.885 418.51 111.217C418.51 113.518 419.852 115.154 422.069 115.154ZM430.013 115.154C432.165 115.154 433.572 113.578 433.572 111.217C433.572 108.84 432.165 107.264 430.013 107.264C427.86 107.264 426.453 108.84 426.453 111.217C426.453 113.578 427.86 115.154 430.013 115.154ZM430.018 113.906C428.611 113.906 427.955 112.678 427.955 111.212C427.955 109.75 428.611 108.507 430.018 108.507C431.415 108.507 432.071 109.75 432.071 111.212C432.071 112.678 431.415 113.906 430.018 113.906ZM436.718 110.466C436.718 109.248 437.464 108.552 438.498 108.552C439.507 108.552 440.119 109.213 440.119 110.322V115H441.605V110.143C441.605 108.254 440.566 107.264 439.005 107.264C437.857 107.264 437.106 107.796 436.753 108.607H436.659V107.364H435.232V115H436.718V110.466ZM447.164 107.364H445.597V105.534H444.111V107.364H442.992V108.557H444.111V113.066C444.106 114.453 445.165 115.124 446.338 115.099C446.811 115.094 447.129 115.005 447.303 114.94L447.034 113.712C446.935 113.732 446.751 113.777 446.512 113.777C446.03 113.777 445.597 113.618 445.597 112.758V108.557H447.164V107.364ZM451.03 115.169C452.293 115.169 453.004 114.528 453.287 113.956H453.347V115H454.799V109.929C454.799 107.707 453.049 107.264 451.836 107.264C450.453 107.264 449.181 107.821 448.684 109.213L450.081 109.531C450.299 108.989 450.856 108.467 451.855 108.467C452.815 108.467 453.307 108.969 453.307 109.835V109.869C453.307 110.411 452.75 110.401 451.378 110.56C449.931 110.729 448.45 111.107 448.45 112.842C448.45 114.344 449.578 115.169 451.03 115.169ZM451.353 113.976C450.513 113.976 449.907 113.598 449.907 112.862C449.907 112.067 450.613 111.783 451.473 111.669C451.955 111.604 453.098 111.475 453.312 111.261V112.246C453.312 113.151 452.591 113.976 451.353 113.976ZM459.995 115.154C461.8 115.154 462.968 114.07 463.132 112.584H461.686C461.497 113.409 460.855 113.896 460.005 113.896C458.747 113.896 457.937 112.847 457.937 111.182C457.937 109.546 458.762 108.517 460.005 108.517C460.95 108.517 461.526 109.114 461.686 109.83H463.132C462.973 108.288 461.715 107.264 459.98 107.264C457.828 107.264 456.436 108.885 456.436 111.217C456.436 113.518 457.778 115.154 459.995 115.154ZM468.287 107.364H466.721V105.534H465.234V107.364H464.115V108.557H465.234V113.066C465.229 114.453 466.288 115.124 467.461 115.099C467.934 115.094 468.252 115.005 468.426 114.94L468.157 113.712C468.058 113.732 467.874 113.777 467.635 113.777C467.153 113.777 466.721 113.618 466.721 112.758V108.557H468.287V107.364ZM478.473 111.833C478.478 113.131 477.514 113.747 476.679 113.747C475.759 113.747 475.123 113.081 475.123 112.042V107.364H473.636V112.221C473.636 114.115 474.675 115.099 476.142 115.099C477.29 115.099 478.071 114.493 478.424 113.678H478.503V115H479.965V107.364H478.473V111.833ZM487.684 109.228C487.376 108.04 486.447 107.264 484.796 107.264C483.071 107.264 481.848 108.174 481.848 109.526C481.848 110.61 482.504 111.331 483.936 111.649L485.229 111.933C485.964 112.097 486.307 112.425 486.307 112.902C486.307 113.494 485.676 113.956 484.702 113.956C483.812 113.956 483.24 113.573 483.061 112.822L481.624 113.041C481.873 114.393 482.996 115.154 484.711 115.154C486.556 115.154 487.834 114.175 487.834 112.793C487.834 111.714 487.148 111.048 485.746 110.724L484.532 110.446C483.692 110.247 483.329 109.964 483.334 109.447C483.329 108.86 483.966 108.442 484.811 108.442C485.736 108.442 486.163 108.955 486.337 109.467L487.684 109.228Z" fill="#B91C1C"/>
<path d="M417.854 117.799H488.465V118.883H417.854V117.799Z" fill="#B91C1C"/>
<path fill-rule="evenodd" clip-rule="evenodd" d="M536.293 104.293C536.683 103.902 537.317 103.902 537.707 104.293L542 108.586L546.293 104.293C546.683 103.902 547.317 103.902 547.707 104.293C548.098 104.683 548.098 105.317 547.707 105.707L543.414 110L547.707 114.293C548.098 114.683 548.098 115.317 547.707 115.707C547.317 116.098 546.683 116.098 546.293 115.707L542 111.414L537.707 115.707C537.317 116.098 536.683 116.098 536.293 115.707C535.902 115.317 535.902 114.683 536.293 114.293L540.586 110L536.293 105.707C535.902 105.317 535.902 104.683 536.293 104.293Z" fill="#EF4444"/>
<rect x="0.5" y="0.5" width="583" height="219" rx="4.5" stroke="#7B61FF" stroke-dasharray="10 5"/>
</svg>
