<svg width="44" height="6" viewBox="0 0 44 6" fill="none" xmlns="http://www.w3.org/2000/svg">
<g clip-path="url(#clip0)">
<path d="M2.31044 4.72747C1.88 4.72747 1.48754 4.62566 1.13306 4.42206C0.782806 4.21421 0.506397 3.93425 0.303838 3.58219C0.101279 3.23012 0 2.84411 0 2.42418C0 2 0.0970595 1.61188 0.291178 1.25981C0.489517 0.903499 0.763816 0.623542 1.11407 0.419936C1.46433 0.212089 1.86312 0.108165 2.31044 0.108165C2.66914 0.108165 2.97719 0.165429 3.23461 0.279957C3.49625 0.390244 3.72835 0.566278 3.93091 0.808059L3.30424 1.35525C3.03838 1.07529 2.70712 0.935313 2.31044 0.935313C2.03192 0.935313 1.78716 1.00318 1.57616 1.13892C1.36516 1.27041 1.20269 1.45069 1.08875 1.67975C0.974815 1.90456 0.917845 2.1527 0.917845 2.42418C0.917845 2.69565 0.974815 2.9438 1.08875 3.16861C1.20691 3.39343 1.37149 3.57158 1.58249 3.70308C1.79771 3.83457 2.04669 3.90032 2.32943 3.90032C2.74299 3.90032 3.08058 3.7561 3.34222 3.46766L3.98788 4.02121C3.81064 4.23754 3.57854 4.40933 3.29158 4.53659C3.00884 4.66384 2.6818 4.72747 2.31044 4.72747Z" fill="white"/>
<path d="M5.72773 3.95122C5.90919 3.95122 6.06955 3.9088 6.20881 3.82397C6.35229 3.73913 6.46201 3.6246 6.53796 3.48038C6.61392 3.33616 6.6519 3.17709 6.6519 3.00318C6.6519 2.82927 6.61392 2.6702 6.53796 2.52598C6.46201 2.37752 6.35229 2.26087 6.20881 2.17603C6.06955 2.08696 5.90919 2.04242 5.72773 2.04242C5.55049 2.04242 5.39224 2.08696 5.25298 2.17603C5.11372 2.26087 5.00611 2.3754 4.93015 2.51962C4.85419 2.66384 4.81621 2.82291 4.81621 2.99682C4.81621 3.16649 4.85419 3.32556 4.93015 3.47402C5.01033 3.61824 5.11794 3.73489 5.25298 3.82397C5.39224 3.9088 5.55049 3.95122 5.72773 3.95122ZM3.96167 3.00318C3.96167 2.68929 4.03341 2.40085 4.17689 2.13786C4.32459 1.87063 4.52293 1.65854 4.7719 1.50159C5.02088 1.34464 5.29307 1.26617 5.58847 1.26617C5.85855 1.26617 6.07588 1.31707 6.24046 1.41888C6.40926 1.52068 6.54007 1.66702 6.63291 1.8579V1.33616H7.48113V4.64475H6.6519V4.10392C6.55484 4.30329 6.42192 4.45811 6.25312 4.5684C6.08854 4.67444 5.86699 4.72747 5.58847 4.72747C5.29307 4.72747 5.02088 4.65111 4.7719 4.49841C4.52293 4.34146 4.32459 4.1315 4.17689 3.86851C4.03341 3.60551 3.96167 3.31707 3.96167 3.00318Z" fill="white"/>
<path d="M7.98886 0H8.84341V4.64475H7.98886V0Z" fill="white"/>
<path d="M9.80457 4.69565C9.65687 4.69565 9.53239 4.64687 9.43111 4.54931C9.33405 4.44751 9.28552 4.32662 9.28552 4.18664C9.28552 4.04666 9.33405 3.92789 9.43111 3.83033C9.53239 3.73277 9.65687 3.68399 9.80457 3.68399C9.95227 3.68399 10.0747 3.73277 10.1717 3.83033C10.2688 3.92789 10.3173 4.04666 10.3173 4.18664C10.3173 4.32662 10.2688 4.44751 10.1717 4.54931C10.0747 4.64687 9.95227 4.69565 9.80457 4.69565Z" fill="white"/>
<path d="M12.2741 4.72747C11.9238 4.72747 11.6136 4.65111 11.3435 4.49841C11.0777 4.34146 10.8709 4.1315 10.7232 3.86851C10.5797 3.60551 10.508 3.31283 10.508 2.99046C10.508 2.66808 10.5797 2.3754 10.7232 2.11241C10.8709 1.84942 11.0777 1.64157 11.3435 1.48887C11.6136 1.33192 11.9238 1.25345 12.2741 1.25345C12.8395 1.25345 13.2826 1.45493 13.6033 1.8579L12.9324 2.41145C12.8522 2.29268 12.7551 2.20148 12.6412 2.13786C12.5315 2.06999 12.4049 2.03606 12.2614 2.03606C12.0842 2.03606 11.928 2.08059 11.793 2.16967C11.6579 2.25451 11.5524 2.36904 11.4765 2.51326C11.4005 2.65748 11.3625 2.81654 11.3625 2.99046C11.3625 3.16013 11.4005 3.31919 11.4765 3.46766C11.5567 3.61188 11.6664 3.72853 11.8056 3.8176C11.9449 3.90244 12.1031 3.94486 12.2804 3.94486C12.5589 3.94486 12.7994 3.80912 13.002 3.53765L13.6413 4.10392C13.4641 4.30753 13.2657 4.46235 13.0463 4.5684C12.8269 4.67444 12.5695 4.72747 12.2741 4.72747Z" fill="white"/>
<path d="M15.3707 4.72747C15.0374 4.72747 14.7377 4.65111 14.4719 4.49841C14.206 4.34146 13.9971 4.1315 13.8452 3.86851C13.6933 3.60127 13.6173 3.31071 13.6173 2.99682C13.6173 2.68293 13.6933 2.39236 13.8452 2.12513C13.9971 1.8579 14.206 1.64793 14.4719 1.49523C14.7377 1.33828 15.0374 1.25981 15.3707 1.25981C15.7041 1.25981 16.0037 1.33828 16.2696 1.49523C16.5355 1.64793 16.7443 1.8579 16.8963 2.12513C17.0482 2.39236 17.1241 2.68293 17.1241 2.99682C17.1241 3.31071 17.0482 3.60127 16.8963 3.86851C16.7443 4.1315 16.5355 4.34146 16.2696 4.49841C16.0037 4.65111 15.7041 4.72747 15.3707 4.72747ZM14.4719 2.99682C14.4719 3.17073 14.5078 3.3298 14.5795 3.47402C14.6555 3.61824 14.761 3.73277 14.896 3.8176C15.0353 3.90244 15.1935 3.94486 15.3707 3.94486C15.548 3.94486 15.7041 3.90244 15.8392 3.8176C15.9784 3.73277 16.0839 3.61824 16.1557 3.47402C16.2316 3.3298 16.2696 3.17073 16.2696 2.99682C16.2696 2.82291 16.2316 2.66384 16.1557 2.51962C16.0797 2.3754 15.9742 2.26087 15.8392 2.17603C15.7041 2.08696 15.548 2.04242 15.3707 2.04242C15.1935 2.04242 15.0374 2.08696 14.9023 2.17603C14.7673 2.26087 14.6618 2.3754 14.5858 2.51962C14.5099 2.66384 14.4719 2.82291 14.4719 2.99682Z" fill="white"/>
<path d="M17.5024 1.33616H18.3442V1.81972C18.5173 1.44645 18.8528 1.25981 19.3507 1.25981C19.5828 1.25981 19.7917 1.31495 19.9774 1.42524C20.1673 1.53128 20.315 1.68399 20.4205 1.88335C20.5344 1.6755 20.6779 1.52068 20.8509 1.41888C21.0281 1.31283 21.256 1.25981 21.5345 1.25981C21.7709 1.25981 21.984 1.31707 22.1739 1.4316C22.3638 1.54189 22.5136 1.70095 22.6233 1.9088C22.733 2.11241 22.7879 2.34995 22.7879 2.62142V4.64475H21.9333V2.83139C21.9333 2.55567 21.8743 2.34995 21.7561 2.21421C21.6379 2.07847 21.4776 2.0106 21.275 2.0106C21.0598 2.0106 20.8931 2.07211 20.775 2.19512C20.661 2.31813 20.604 2.53022 20.604 2.83139V4.64475H19.7495V2.83139C19.7495 2.55567 19.6862 2.34995 19.5596 2.21421C19.433 2.07847 19.26 2.0106 19.0405 2.0106C18.8464 2.0106 18.684 2.08059 18.5531 2.22057C18.4223 2.35631 18.3569 2.55992 18.3569 2.83139V4.64475H17.5024V1.33616Z" fill="white"/>
<path d="M26.9878 4.72747C26.6924 4.72747 26.4202 4.65111 26.1712 4.49841C25.9222 4.34146 25.7239 4.1315 25.5762 3.86851C25.4327 3.60551 25.361 3.31707 25.361 3.00318C25.361 2.68929 25.4327 2.40085 25.5762 2.13786C25.7239 1.87063 25.9222 1.65854 26.1712 1.50159C26.4202 1.34464 26.6924 1.26617 26.9878 1.26617C27.2579 1.26617 27.4752 1.31707 27.6398 1.41888C27.8043 1.51644 27.9331 1.65854 28.0259 1.84518V0H28.8804V4.64475H28.0512V4.10392C27.9542 4.30329 27.8212 4.45811 27.6524 4.5684C27.4878 4.67444 27.2663 4.72747 26.9878 4.72747ZM26.2155 2.99682C26.2155 3.16649 26.2535 3.32556 26.3295 3.47402C26.4096 3.61824 26.5172 3.73489 26.6523 3.82397C26.7915 3.9088 26.9498 3.95122 27.127 3.95122C27.3085 3.95122 27.4689 3.9088 27.6081 3.82397C27.7516 3.73913 27.8613 3.6246 27.9373 3.48038C28.0132 3.33616 28.0512 3.17709 28.0512 3.00318C28.0512 2.82927 28.0132 2.6702 27.9373 2.52598C27.8613 2.37752 27.7516 2.26087 27.6081 2.17603C27.4689 2.08696 27.3085 2.04242 27.127 2.04242C26.9498 2.04242 26.7915 2.08696 26.6523 2.17603C26.513 2.26087 26.4054 2.3754 26.3295 2.51962C26.2535 2.66384 26.2155 2.82291 26.2155 2.99682Z" fill="#888888"/>
<path d="M30.996 4.7211C30.6542 4.7211 30.3503 4.64475 30.0845 4.49205C29.8228 4.33934 29.6203 4.1315 29.4768 3.86851C29.3333 3.60551 29.2616 3.31495 29.2616 2.99682C29.2616 2.67869 29.3354 2.38812 29.4831 2.12513C29.6308 1.8579 29.8355 1.64581 30.0971 1.48887C30.363 1.33192 30.6626 1.25345 30.996 1.25345C31.3251 1.25345 31.6184 1.33192 31.8758 1.48887C32.1375 1.64581 32.34 1.8579 32.4835 2.12513C32.627 2.38812 32.6987 2.67869 32.6987 2.99682C32.6987 3.10711 32.6903 3.21103 32.6734 3.30859H30.1668C30.2174 3.50795 30.3123 3.6649 30.4516 3.77943C30.5909 3.88971 30.7723 3.94486 30.996 3.94486C31.1901 3.94486 31.3568 3.90668 31.496 3.83033C31.6395 3.75398 31.7471 3.65005 31.8189 3.51856L32.4962 4.02121C32.3611 4.2333 32.1607 4.40297 31.8948 4.53022C31.629 4.65748 31.3294 4.7211 30.996 4.7211ZM31.8315 2.63415C31.7767 2.44751 31.6733 2.2948 31.5214 2.17603C31.3737 2.05302 31.1943 1.99152 30.9833 1.99152C30.7765 1.99152 30.5972 2.0509 30.4453 2.16967C30.2976 2.2842 30.1984 2.43902 30.1478 2.63415H31.8315Z" fill="#888888"/>
<path d="M34.1064 4.72747C33.5536 4.72747 33.0978 4.53446 32.7391 4.14846L33.3152 3.62036C33.5557 3.89183 33.8131 4.02757 34.0874 4.02757C34.2267 4.02757 34.3343 3.99576 34.4103 3.93213C34.4904 3.86851 34.5305 3.78579 34.5305 3.68399C34.5305 3.62036 34.5158 3.56946 34.4862 3.53128C34.4609 3.48887 34.406 3.44857 34.3216 3.41039C34.2372 3.37222 34.1106 3.33404 33.9418 3.29586C33.5409 3.1983 33.2709 3.06469 33.1316 2.89502C32.9966 2.72534 32.929 2.51538 32.929 2.26511C32.929 1.96819 33.0388 1.72641 33.2582 1.53977C33.4776 1.34889 33.7773 1.25345 34.1571 1.25345C34.4314 1.25345 34.6613 1.29586 34.847 1.3807C35.0369 1.46554 35.2142 1.614 35.3787 1.82609L34.7584 2.30329C34.6824 2.18452 34.5938 2.09544 34.4925 2.03606C34.3913 1.97667 34.29 1.94698 34.1887 1.94698C34.0579 1.94698 33.9566 1.97455 33.8849 2.02969C33.8173 2.08059 33.7836 2.15058 33.7836 2.23966C33.7836 2.30753 33.8089 2.36691 33.8596 2.41782C33.9144 2.46448 34.0305 2.51113 34.2077 2.55779C34.6592 2.67656 34.9673 2.82291 35.1319 2.99682C35.3007 3.17073 35.3851 3.3913 35.3851 3.65854C35.3851 3.8579 35.3281 4.0403 35.2142 4.20573C35.1044 4.36691 34.9525 4.49417 34.7584 4.58749C34.5643 4.68081 34.347 4.72747 34.1064 4.72747Z" fill="#888888"/>
<path d="M35.7181 1.33616H36.5727V4.64475H35.7181V1.33616ZM35.6295 0.553553C35.6295 0.413574 35.678 0.294804 35.7751 0.197243C35.8764 0.0996816 35.9988 0.0509011 36.1422 0.0509011C36.2899 0.0509011 36.4123 0.0996816 36.5094 0.197243C36.6064 0.294804 36.655 0.413574 36.655 0.553553C36.655 0.697773 36.6064 0.818664 36.5094 0.916225C36.4123 1.01379 36.2899 1.06257 36.1422 1.06257C35.9988 1.06257 35.8764 1.01379 35.7751 0.916225C35.678 0.814422 35.6295 0.693531 35.6295 0.553553Z" fill="#888888"/>
<path d="M38.6859 3.88123C38.9602 3.88123 39.1775 3.79427 39.3379 3.62036C39.4982 3.44645 39.5784 3.22587 39.5784 2.95864C39.5784 2.69141 39.4982 2.47084 39.3379 2.29692C39.1775 2.12301 38.9602 2.03606 38.6859 2.03606C38.4158 2.03606 38.2006 2.12301 38.0402 2.29692C37.8841 2.47084 37.806 2.69141 37.806 2.95864C37.806 3.22163 37.8841 3.44221 38.0402 3.62036C38.2006 3.79427 38.4158 3.88123 38.6859 3.88123ZM36.9515 2.95864C36.9515 2.64475 37.0211 2.35843 37.1604 2.09968C37.2996 1.83669 37.4916 1.63097 37.7364 1.4825C37.9812 1.3298 38.2512 1.25345 38.5466 1.25345C38.8083 1.25345 39.0172 1.30011 39.1733 1.39343C39.3337 1.4825 39.4603 1.614 39.5531 1.78791V1.33616H40.395V4.35207C40.395 4.68717 40.3211 4.97773 40.1734 5.22375C40.03 5.47402 39.8274 5.6649 39.5658 5.79639C39.3083 5.93213 39.0129 6 38.6796 6C38.3335 6 38.0318 5.95122 37.7744 5.85366C37.517 5.76034 37.2933 5.60127 37.1034 5.37646L37.6351 4.74655C37.7828 4.91623 37.939 5.035 38.1035 5.10286C38.2723 5.17073 38.4665 5.20467 38.6859 5.20467C38.8378 5.20467 38.9792 5.16437 39.11 5.08378C39.2408 5.00742 39.3442 4.89926 39.4202 4.75928C39.5004 4.62354 39.5404 4.47084 39.5404 4.30117V4.15483C39.4434 4.32025 39.3168 4.44751 39.1606 4.53659C39.0045 4.62142 38.7998 4.66384 38.5466 4.66384C38.2512 4.66384 37.9812 4.58961 37.7364 4.44115C37.4916 4.28844 37.2996 4.08271 37.1604 3.82397C37.0211 3.56098 36.9515 3.27253 36.9515 2.95864Z" fill="#888888"/>
<path d="M40.8983 1.33616H41.7402V1.81972C41.9132 1.44645 42.2487 1.25981 42.7467 1.25981C42.983 1.25981 43.1961 1.31707 43.386 1.4316C43.5759 1.54189 43.7257 1.70095 43.8354 1.9088C43.9451 2.11241 44 2.34995 44 2.62142V4.64475H43.1455V2.83139C43.1455 2.55567 43.0822 2.34995 42.9556 2.21421C42.829 2.07847 42.6559 2.0106 42.4365 2.0106C42.2424 2.0106 42.0799 2.08059 41.9491 2.22057C41.8183 2.35631 41.7529 2.55992 41.7529 2.83139V4.64475H40.8983V1.33616Z" fill="#888888"/>
</g>
<defs>
<clipPath id="clip0">
<rect width="44" height="6" fill="white"/>
</clipPath>
</defs>
</svg>
