<?xml version="1.0" encoding="UTF-8" standalone="no"?>
<!DOCTYPE svg PUBLIC "-//W3C//DTD SVG 1.1//EN" "http://www.w3.org/Graphics/SVG/1.1/DTD/svg11.dtd">
<svg width="100%" height="100%" viewBox="0 0 1440 900" version="1.1" xmlns="http://www.w3.org/2000/svg" xmlns:xlink="http://www.w3.org/1999/xlink" xml:space="preserve" xmlns:serif="http://www.serif.com/" style="fill-rule:evenodd;clip-rule:evenodd;stroke-linejoin:round;stroke-miterlimit:2;">
    <path d="M1466.7,157.713C1466.7,144.565 1456.03,133.89 1442.88,133.89L414.908,133.89C401.76,133.89 391.085,144.565 391.085,157.713L391.085,905.837C391.085,918.985 401.76,929.66 414.908,929.66L1442.88,929.66C1456.03,929.66 1466.7,918.985 1466.7,905.837L1466.7,157.713Z" style="fill:white;"/>
    <g transform="matrix(1,0,0,1,-0.499183,0)">
        <circle cx="419.837" cy="167.232" r="9.923" style="fill:rgb(238,111,100);"/>
    </g>
    <g transform="matrix(1,0,0,1,27.8427,0)">
        <circle cx="419.837" cy="167.232" r="9.923" style="fill:rgb(247,193,84);"/>
    </g>
    <g transform="matrix(1,0,0,1,57.2887,0)">
        <circle cx="419.837" cy="167.232" r="9.923" style="fill:rgb(102,199,89);"/>
    </g>
    <g transform="matrix(6.8594,0,0,1,-2291.52,0)">
        <rect x="391.085" y="196.123" width="152.916" height="4.199" style="fill:rgb(238,239,238);"/>
    </g>
    <rect x="391.085" y="200.322" width="1048.91" height="699.678" style="fill:rgb(243,244,246);"/>
    <g transform="matrix(0.957554,0,0,0.957554,-16.7124,10.2301)">
        <path d="M987.521,277.143C1135.17,277.143 1255.04,397.015 1255.04,544.664C1255.04,692.312 1135.17,812.184 987.521,812.184C839.872,812.184 720,692.312 720,544.664C720,397.015 839.872,277.143 987.521,277.143ZM987.521,360.907C1088.94,360.907 1171.28,443.246 1171.28,544.664C1171.28,646.081 1088.94,728.42 987.521,728.42C886.103,728.42 803.764,646.081 803.764,544.664C803.764,443.246 886.103,360.907 987.521,360.907Z" style="fill:url(#_Radial1);"/>
    </g>
    <defs>
        <radialGradient id="_Radial1" cx="0" cy="0" r="1" gradientUnits="userSpaceOnUse" gradientTransform="matrix(535.042,0,0,535.042,720,544.664)"><stop offset="0" style="stop-color:rgb(0,183,255);stop-opacity:1"/><stop offset="0.14" style="stop-color:rgb(0,253,181);stop-opacity:1"/><stop offset="0.32" style="stop-color:rgb(169,252,0);stop-opacity:1"/><stop offset="0.45" style="stop-color:rgb(252,133,0);stop-opacity:1"/><stop offset="0.59" style="stop-color:rgb(251,44,0);stop-opacity:1"/><stop offset="0.73" style="stop-color:rgb(251,0,100);stop-opacity:1"/><stop offset="0.87" style="stop-color:rgb(186,0,253);stop-opacity:1"/><stop offset="1" style="stop-color:rgb(102,0,255);stop-opacity:1"/></radialGradient>
    </defs>
</svg>
