<?xml version="1.0" encoding="UTF-8" standalone="no"?>
<!DOCTYPE svg PUBLIC "-//W3C//DTD SVG 1.1//EN" "http://www.w3.org/Graphics/SVG/1.1/DTD/svg11.dtd">
<svg width="100%" height="100%" viewBox="0 0 1440 900" version="1.1" xmlns="http://www.w3.org/2000/svg" xmlns:xlink="http://www.w3.org/1999/xlink" xml:space="preserve" xmlns:serif="http://www.serif.com/" style="fill-rule:evenodd;clip-rule:evenodd;stroke-linejoin:round;stroke-miterlimit:2;">
    <path d="M1466.7,157.713C1466.7,144.565 1456.03,133.89 1442.88,133.89L414.908,133.89C401.76,133.89 391.085,144.565 391.085,157.713L391.085,905.837C391.085,918.985 401.76,929.66 414.908,929.66L1442.88,929.66C1456.03,929.66 1466.7,918.985 1466.7,905.837L1466.7,157.713Z" style="fill:white;"/>
    <g transform="matrix(1,0,0,1,-0.499183,0)">
        <circle cx="419.837" cy="167.232" r="9.923" style="fill:rgb(238,111,100);"/>
    </g>
    <g transform="matrix(1,0,0,1,27.8427,0)">
        <circle cx="419.837" cy="167.232" r="9.923" style="fill:rgb(247,193,84);"/>
    </g>
    <g transform="matrix(1,0,0,1,57.2887,0)">
        <circle cx="419.837" cy="167.232" r="9.923" style="fill:rgb(102,199,89);"/>
    </g>
    <g transform="matrix(6.8594,0,0,1,-2291.52,0)">
        <rect x="391.085" y="196.123" width="152.916" height="4.199" style="fill:rgb(238,239,238);"/>
    </g>
    <rect x="391.085" y="200.322" width="1048.91" height="699.678" style="fill:rgb(243,244,246);"/>
    <path d="M1273.87,304.571C1273.87,300.671 1270.7,297.504 1266.8,297.504L566.121,297.504C562.22,297.504 559.053,300.671 559.053,304.571L559.053,691.221C559.053,695.121 562.22,698.288 566.121,698.288L1266.8,698.288C1270.7,698.288 1273.87,695.121 1273.87,691.221L1273.87,304.571Z" style="fill:white;"/>
    <path d="M1042.09,321.493C1042.09,319.112 1040.16,317.179 1037.78,317.179L943.533,317.179C941.152,317.179 939.219,319.112 939.219,321.493L939.219,330.121C939.219,332.502 941.152,334.435 943.533,334.435L1037.78,334.435C1040.16,334.435 1042.09,332.502 1042.09,330.121L1042.09,321.493Z" style="fill:rgb(216,216,216);"/>
    <path d="M961.562,361.283C961.562,359.877 960.421,358.736 959.015,358.736L936.071,358.736C934.666,358.736 933.525,359.877 933.525,361.283L933.525,366.375C933.525,367.781 934.666,368.922 936.071,368.922L959.015,368.922C960.421,368.922 961.562,367.781 961.562,366.375L961.562,361.283Z" style="fill:rgb(216,216,216);"/>
    <path d="M1009.59,361.283C1009.59,359.877 1008.45,358.736 1007.04,358.736L988.302,358.736C986.897,358.736 985.756,359.877 985.756,361.283L985.756,366.375C985.756,367.781 986.897,368.922 988.302,368.922L1007.04,368.922C1008.45,368.922 1009.59,367.781 1009.59,366.375L1009.59,361.283Z" style="fill:rgb(216,216,216);"/>
    <path d="M1059.09,361.283C1059.09,359.877 1057.95,358.736 1056.55,358.736L1034.44,358.736C1033.03,358.736 1031.89,359.877 1031.89,361.283L1031.89,366.375C1031.89,367.781 1033.03,368.922 1034.44,368.922L1056.55,368.922C1057.95,368.922 1059.09,367.781 1059.09,366.375L1059.09,361.283Z" style="fill:rgb(216,216,216);"/>
    <path d="M1107.41,361.283C1107.41,359.877 1106.27,358.736 1104.87,358.736L1084.08,358.736C1082.67,358.736 1081.53,359.877 1081.53,361.283L1081.53,366.375C1081.53,367.781 1082.67,368.922 1084.08,368.922L1104.87,368.922C1106.27,368.922 1107.41,367.781 1107.41,366.375L1107.41,361.283Z" style="fill:rgb(216,216,216);"/>
    <path d="M1152.74,361.283C1152.74,359.877 1151.6,358.736 1150.2,358.736L1136.97,358.736C1135.56,358.736 1134.42,359.877 1134.42,361.283L1134.42,366.375C1134.42,367.781 1135.56,368.922 1136.97,368.922L1150.2,368.922C1151.6,368.922 1152.74,367.781 1152.74,366.375L1152.74,361.283Z" style="fill:rgb(216,216,216);"/>
    <path d="M1202.46,361.283C1202.46,359.877 1201.32,358.736 1199.92,358.736L1183.75,358.736C1182.34,358.736 1181.2,359.877 1181.2,361.283L1181.2,366.375C1181.2,367.781 1182.34,368.922 1183.75,368.922L1199.92,368.922C1201.32,368.922 1202.46,367.781 1202.46,366.375L1202.46,361.283Z" style="fill:rgb(216,216,216);"/>
    <path d="M1253.77,361.283C1253.77,359.877 1252.63,358.736 1251.22,358.736L1231.06,358.736C1229.65,358.736 1228.51,359.877 1228.51,361.283L1228.51,366.375C1228.51,367.781 1229.65,368.922 1231.06,368.922L1251.22,368.922C1252.63,368.922 1253.77,367.781 1253.77,366.375L1253.77,361.283Z" style="fill:rgb(216,216,216);"/>
    <path d="M1221.17,322.889C1221.17,321.554 1220.08,320.47 1218.75,320.47L1213.91,320.47C1212.58,320.47 1211.49,321.554 1211.49,322.889L1211.49,328.772C1211.49,330.107 1212.58,331.191 1213.91,331.191L1218.75,331.191C1220.08,331.191 1221.17,330.107 1221.17,328.772L1221.17,322.889Z" style="fill:rgb(216,216,216);"/>
    <path d="M1249.9,322.661C1249.9,321.452 1248.92,320.47 1247.71,320.47L1243.33,320.47C1242.12,320.47 1241.14,321.452 1241.14,322.661L1241.14,329C1241.14,330.209 1242.12,331.191 1243.33,331.191L1247.71,331.191C1248.92,331.191 1249.9,330.209 1249.9,329L1249.9,322.661Z" style="fill:rgb(216,216,216);"/>
    <circle cx="604.746" cy="342.772" r="30.283" style="fill:rgb(216,216,216);"/>
    <path d="M683.787,395.759C683.787,394.078 682.422,392.713 680.741,392.713L577.509,392.713C575.828,392.713 574.463,394.078 574.463,395.759L574.463,401.85C574.463,403.531 575.828,404.895 577.509,404.895L680.741,404.895C682.422,404.895 683.787,403.531 683.787,401.85L683.787,395.759Z" style="fill:rgb(216,216,216);"/>
    <path d="M720,421.895C720,418.594 717.32,415.913 714.018,415.913L580.445,415.913C577.144,415.913 574.463,418.594 574.463,421.895L574.463,433.859C574.463,437.161 577.144,439.841 580.445,439.841L714.018,439.841C717.32,439.841 720,437.161 720,433.859L720,421.895Z" style="fill:rgb(216,216,216);"/>
    <path d="M668.043,469.993C668.043,467.802 666.264,466.023 664.073,466.023L578.433,466.023C576.242,466.023 574.463,467.802 574.463,469.993L574.463,477.932C574.463,480.123 576.242,481.902 578.433,481.902L664.073,481.902C666.264,481.902 668.043,480.123 668.043,477.932L668.043,469.993Z" style="fill:rgb(216,216,216);"/>
    <path d="M715.447,503.681C715.447,501.399 713.593,499.545 711.311,499.545L578.599,499.545C576.316,499.545 574.463,501.399 574.463,503.681L574.463,511.953C574.463,514.236 576.316,516.089 578.599,516.089L711.311,516.089C713.593,516.089 715.447,514.236 715.447,511.953L715.447,503.681Z" style="fill:rgb(216,216,216);"/>
    <path d="M799.634,544.548C799.634,541.964 797.536,539.866 794.952,539.866L579.146,539.866C576.561,539.866 574.463,541.964 574.463,544.548L574.463,553.914C574.463,556.498 576.561,558.596 579.146,558.596L794.952,558.596C797.536,558.596 799.634,556.498 799.634,553.914L799.634,544.548Z" style="fill:rgb(216,216,216);"/>
    <path d="M966.514,500.429C966.514,495.596 962.59,491.672 957.757,491.672L940.243,491.672C935.409,491.672 931.485,495.596 931.485,500.429L931.485,517.943C931.485,522.777 935.409,526.701 940.243,526.701L957.757,526.701C962.59,526.701 966.514,522.777 966.514,517.943L966.514,500.429Z" style="fill:rgb(216,216,216);"/>
    <path d="M1015.77,500.429C1015.77,495.596 1011.84,491.672 1007.01,491.672L989.496,491.672C984.663,491.672 980.739,495.596 980.739,500.429L980.739,517.943C980.739,522.777 984.663,526.701 989.496,526.701L1007.01,526.701C1011.84,526.701 1015.77,522.777 1015.77,517.943L1015.77,500.429Z" style="fill:rgb(216,216,216);"/>
    <path d="M1065.31,500.429C1065.31,495.596 1061.39,491.672 1056.56,491.672L1039.04,491.672C1034.21,491.672 1030.28,495.596 1030.28,500.429L1030.28,517.943C1030.28,522.777 1034.21,526.701 1039.04,526.701L1056.56,526.701C1061.39,526.701 1065.31,522.777 1065.31,517.943L1065.31,500.429Z" style="fill:rgb(216,216,216);"/>
    <g transform="matrix(1,0,0,1,3,0)">
        <path d="M1111.54,500.429C1111.54,495.596 1107.61,491.672 1102.78,491.672L1085.27,491.672C1080.43,491.672 1076.51,495.596 1076.51,500.429L1076.51,517.943C1076.51,522.777 1080.43,526.701 1085.27,526.701L1102.78,526.701C1107.61,526.701 1111.54,522.777 1111.54,517.943L1111.54,500.429Z" style="fill:rgb(216,216,216);"/>
    </g>
    <path d="M1162.35,500.429C1162.35,495.596 1158.43,491.672 1153.59,491.672L1136.08,491.672C1131.25,491.672 1127.32,495.596 1127.32,500.429L1127.32,517.943C1127.32,522.777 1131.25,526.701 1136.08,526.701L1153.59,526.701C1158.43,526.701 1162.35,522.777 1162.35,517.943L1162.35,500.429Z" style="fill:rgb(216,216,216);"/>
    <path d="M1210.99,500.429C1210.99,495.596 1207.06,491.672 1202.23,491.672L1184.71,491.672C1179.88,491.672 1175.96,495.596 1175.96,500.429L1175.96,517.943C1175.96,522.777 1179.88,526.701 1184.71,526.701L1202.23,526.701C1207.06,526.701 1210.99,522.777 1210.99,517.943L1210.99,500.429Z" style="fill:rgb(216,216,216);"/>
    <path d="M1260.88,500.429C1260.88,495.596 1256.96,491.672 1252.12,491.672L1234.61,491.672C1229.78,491.672 1225.85,495.596 1225.85,500.429L1225.85,517.943C1225.85,522.777 1229.78,526.701 1234.61,526.701L1252.12,526.701C1256.96,526.701 1260.88,522.777 1260.88,517.943L1260.88,500.429Z" style="fill:rgb(216,216,216);"/>
    <g transform="matrix(1,0,0,1,-0.65626,52.0108)">
        <path d="M966.514,500.429C966.514,495.596 962.59,491.672 957.757,491.672L940.243,491.672C935.409,491.672 931.485,495.596 931.485,500.429L931.485,517.943C931.485,522.777 935.409,526.701 940.243,526.701L957.757,526.701C962.59,526.701 966.514,522.777 966.514,517.943L966.514,500.429Z" style="fill:rgb(216,216,216);"/>
    </g>
    <g transform="matrix(1,0,0,1,-0.65626,52.0108)">
        <path d="M1015.77,500.429C1015.77,495.596 1011.84,491.672 1007.01,491.672L989.496,491.672C984.663,491.672 980.739,495.596 980.739,500.429L980.739,517.943C980.739,522.777 984.663,526.701 989.496,526.701L1007.01,526.701C1011.84,526.701 1015.77,522.777 1015.77,517.943L1015.77,500.429Z" style="fill:rgb(216,216,216);"/>
    </g>
    <g transform="matrix(1,0,0,1,-0.65626,52.0108)">
        <path d="M1065.31,500.429C1065.31,495.596 1061.39,491.672 1056.56,491.672L1039.04,491.672C1034.21,491.672 1030.28,495.596 1030.28,500.429L1030.28,517.943C1030.28,522.777 1034.21,526.701 1039.04,526.701L1056.56,526.701C1061.39,526.701 1065.31,522.777 1065.31,517.943L1065.31,500.429Z" style="fill:rgb(216,216,216);"/>
    </g>
    <g transform="matrix(1,0,0,1,2.34374,52.0108)">
        <path d="M1111.54,500.429C1111.54,495.596 1107.61,491.672 1102.78,491.672L1085.27,491.672C1080.43,491.672 1076.51,495.596 1076.51,500.429L1076.51,517.943C1076.51,522.777 1080.43,526.701 1085.27,526.701L1102.78,526.701C1107.61,526.701 1111.54,522.777 1111.54,517.943L1111.54,500.429Z" style="fill:rgb(216,216,216);"/>
    </g>
    <g transform="matrix(1,0,0,1,-0.65626,52.0108)">
        <path d="M1162.35,500.429C1162.35,495.596 1158.43,491.672 1153.59,491.672L1136.08,491.672C1131.25,491.672 1127.32,495.596 1127.32,500.429L1127.32,517.943C1127.32,522.777 1131.25,526.701 1136.08,526.701L1153.59,526.701C1158.43,526.701 1162.35,522.777 1162.35,517.943L1162.35,500.429Z" style="fill:rgb(216,216,216);"/>
    </g>
    <g transform="matrix(1,0,0,1,-0.65626,52.0108)">
        <path d="M1210.99,500.429C1210.99,495.596 1207.06,491.672 1202.23,491.672L1184.71,491.672C1179.88,491.672 1175.96,495.596 1175.96,500.429L1175.96,517.943C1175.96,522.777 1179.88,526.701 1184.71,526.701L1202.23,526.701C1207.06,526.701 1210.99,522.777 1210.99,517.943L1210.99,500.429Z" style="fill:rgb(216,216,216);"/>
    </g>
    <g transform="matrix(1,0,0,1,-0.65626,52.0108)">
        <path d="M1260.88,500.429C1260.88,495.596 1256.96,491.672 1252.12,491.672L1234.61,491.672C1229.78,491.672 1225.85,495.596 1225.85,500.429L1225.85,517.943C1225.85,522.777 1229.78,526.701 1234.61,526.701L1252.12,526.701C1256.96,526.701 1260.88,522.777 1260.88,517.943L1260.88,500.429Z" style="fill:rgb(216,216,216);"/>
    </g>
    <g transform="matrix(1,0,0,1,0.557371,102.938)">
        <path d="M966.514,500.429C966.514,495.596 962.59,491.672 957.757,491.672L940.243,491.672C935.409,491.672 931.485,495.596 931.485,500.429L931.485,517.943C931.485,522.777 935.409,526.701 940.243,526.701L957.757,526.701C962.59,526.701 966.514,522.777 966.514,517.943L966.514,500.429Z" style="fill:rgb(216,216,216);"/>
    </g>
    <g transform="matrix(1,0,0,1,0.557371,102.938)">
        <path d="M1015.77,500.429C1015.77,495.596 1011.84,491.672 1007.01,491.672L989.496,491.672C984.663,491.672 980.739,495.596 980.739,500.429L980.739,517.943C980.739,522.777 984.663,526.701 989.496,526.701L1007.01,526.701C1011.84,526.701 1015.77,522.777 1015.77,517.943L1015.77,500.429Z" style="fill:rgb(216,216,216);"/>
    </g>
    <g transform="matrix(1,0,0,1,0.557371,102.938)">
        <path d="M1065.31,500.429C1065.31,495.596 1061.39,491.672 1056.56,491.672L1039.04,491.672C1034.21,491.672 1030.28,495.596 1030.28,500.429L1030.28,517.943C1030.28,522.777 1034.21,526.701 1039.04,526.701L1056.56,526.701C1061.39,526.701 1065.31,522.777 1065.31,517.943L1065.31,500.429Z" style="fill:rgb(216,216,216);"/>
    </g>
    <g transform="matrix(1,0,0,1,3.55737,102.938)">
        <path d="M1111.54,500.429C1111.54,495.596 1107.61,491.672 1102.78,491.672L1085.27,491.672C1080.43,491.672 1076.51,495.596 1076.51,500.429L1076.51,517.943C1076.51,522.777 1080.43,526.701 1085.27,526.701L1102.78,526.701C1107.61,526.701 1111.54,522.777 1111.54,517.943L1111.54,500.429Z" style="fill:rgb(216,216,216);"/>
    </g>
    <g transform="matrix(1,0,0,1,0.557371,102.938)">
        <path d="M1162.35,500.429C1162.35,495.596 1158.43,491.672 1153.59,491.672L1136.08,491.672C1131.25,491.672 1127.32,495.596 1127.32,500.429L1127.32,517.943C1127.32,522.777 1131.25,526.701 1136.08,526.701L1153.59,526.701C1158.43,526.701 1162.35,522.777 1162.35,517.943L1162.35,500.429Z" style="fill:rgb(216,216,216);"/>
    </g>
    <g transform="matrix(1,0,0,1,0.557371,102.938)">
        <path d="M1210.99,500.429C1210.99,495.596 1207.06,491.672 1202.23,491.672L1184.71,491.672C1179.88,491.672 1175.96,495.596 1175.96,500.429L1175.96,517.943C1175.96,522.777 1179.88,526.701 1184.71,526.701L1202.23,526.701C1207.06,526.701 1210.99,522.777 1210.99,517.943L1210.99,500.429Z" style="fill:rgb(216,216,216);"/>
    </g>
    <g transform="matrix(1,0,0,1,0.557371,102.938)">
        <path d="M1260.88,500.429C1260.88,495.596 1256.96,491.672 1252.12,491.672L1234.61,491.672C1229.78,491.672 1225.85,495.596 1225.85,500.429L1225.85,517.943C1225.85,522.777 1229.78,526.701 1234.61,526.701L1252.12,526.701C1256.96,526.701 1260.88,522.777 1260.88,517.943L1260.88,500.429Z" style="fill:rgb(216,216,216);"/>
    </g>
    <g transform="matrix(1,0,0,1,0.0382069,-48.8734)">
        <path d="M966.514,500.429C966.514,495.596 962.59,491.672 957.757,491.672L940.243,491.672C935.409,491.672 931.485,495.596 931.485,500.429L931.485,517.943C931.485,522.777 935.409,526.701 940.243,526.701L957.757,526.701C962.59,526.701 966.514,522.777 966.514,517.943L966.514,500.429Z" style="fill:rgb(216,216,216);"/>
    </g>
    <g transform="matrix(1,0,0,1,294.647,-101.098)">
        <path d="M966.514,500.429C966.514,495.596 962.59,491.672 957.757,491.672L940.243,491.672C935.409,491.672 931.485,495.596 931.485,500.429L931.485,517.943C931.485,522.777 935.409,526.701 940.243,526.701L957.757,526.701C962.59,526.701 966.514,522.777 966.514,517.943L966.514,500.429Z" style="fill:rgb(216,216,216);"/>
    </g>
    <g transform="matrix(1,0,0,1,0.0382069,-48.8734)">
        <path d="M1015.77,500.429C1015.77,495.596 1011.84,491.672 1007.01,491.672L989.496,491.672C984.663,491.672 980.739,495.596 980.739,500.429L980.739,517.943C980.739,522.777 984.663,526.701 989.496,526.701L1007.01,526.701C1011.84,526.701 1015.77,522.777 1015.77,517.943L1015.77,500.429Z" style="fill:rgb(216,216,216);"/>
    </g>
    <g transform="matrix(1,0,0,1,-1.46759,154.949)">
        <path d="M966.514,500.429C966.514,495.596 962.59,491.672 957.757,491.672L940.243,491.672C935.409,491.672 931.485,495.596 931.485,500.429L931.485,517.943C931.485,522.777 935.409,526.701 940.243,526.701L957.757,526.701C962.59,526.701 966.514,522.777 966.514,517.943L966.514,500.429Z" style="fill:rgb(216,216,216);"/>
    </g>
    <g transform="matrix(1,0,0,1,-1.46759,154.949)">
        <path d="M1015.77,500.429C1015.77,495.596 1011.84,491.672 1007.01,491.672L989.496,491.672C984.663,491.672 980.739,495.596 980.739,500.429L980.739,517.943C980.739,522.777 984.663,526.701 989.496,526.701L1007.01,526.701C1011.84,526.701 1015.77,522.777 1015.77,517.943L1015.77,500.429Z" style="fill:rgb(216,216,216);"/>
    </g>
    <g transform="matrix(1,0,0,1,0.0382069,-48.8734)">
        <path d="M1065.31,500.429C1065.31,495.596 1061.39,491.672 1056.56,491.672L1039.04,491.672C1034.21,491.672 1030.28,495.596 1030.28,500.429L1030.28,517.943C1030.28,522.777 1034.21,526.701 1039.04,526.701L1056.56,526.701C1061.39,526.701 1065.31,522.777 1065.31,517.943L1065.31,500.429Z" style="fill:rgb(216,216,216);"/>
    </g>
    <g transform="matrix(1,0,0,1,3.03821,-48.8734)">
        <path d="M1111.54,500.429C1111.54,495.596 1107.61,491.672 1102.78,491.672L1085.27,491.672C1080.43,491.672 1076.51,495.596 1076.51,500.429L1076.51,517.943C1076.51,522.777 1080.43,526.701 1085.27,526.701L1102.78,526.701C1107.61,526.701 1111.54,522.777 1111.54,517.943L1111.54,500.429Z" style="fill:rgb(216,216,216);"/>
    </g>
    <g transform="matrix(1,0,0,1,0.0382069,-48.8734)">
        <path d="M1162.35,500.429C1162.35,495.596 1158.43,491.672 1153.59,491.672L1136.08,491.672C1131.25,491.672 1127.32,495.596 1127.32,500.429L1127.32,517.943C1127.32,522.777 1131.25,526.701 1136.08,526.701L1153.59,526.701C1158.43,526.701 1162.35,522.777 1162.35,517.943L1162.35,500.429Z" style="fill:rgb(216,216,216);"/>
    </g>
    <g transform="matrix(1,0,0,1,0.0382069,-48.8734)">
        <path d="M1210.99,500.429C1210.99,495.596 1207.06,491.672 1202.23,491.672L1184.71,491.672C1179.88,491.672 1175.96,495.596 1175.96,500.429L1175.96,517.943C1175.96,522.777 1179.88,526.701 1184.71,526.701L1202.23,526.701C1207.06,526.701 1210.99,522.777 1210.99,517.943L1210.99,500.429Z" style="fill:rgb(216,216,216);"/>
    </g>
    <g transform="matrix(1,0,0,1,0.0382069,-48.8734)">
        <path d="M1260.88,500.429C1260.88,495.596 1256.96,491.672 1252.12,491.672L1234.61,491.672C1229.78,491.672 1225.85,495.596 1225.85,500.429L1225.85,517.943C1225.85,522.777 1229.78,526.701 1234.61,526.701L1252.12,526.701C1256.96,526.701 1260.88,522.777 1260.88,517.943L1260.88,500.429Z" style="fill:rgb(216,216,216);"/>
    </g>
</svg>
