<?xml version="1.0" encoding="UTF-8" standalone="no"?>
<!DOCTYPE svg PUBLIC "-//W3C//DTD SVG 1.1//EN" "http://www.w3.org/Graphics/SVG/1.1/DTD/svg11.dtd">
<svg width="100%" height="100%" viewBox="0 0 1440 900" version="1.1" xmlns="http://www.w3.org/2000/svg" xmlns:xlink="http://www.w3.org/1999/xlink" xml:space="preserve" xmlns:serif="http://www.serif.com/" style="fill-rule:evenodd;clip-rule:evenodd;stroke-linecap:round;stroke-linejoin:round;">
    <path d="M1466.7,157.713C1466.7,144.565 1456.03,133.89 1442.88,133.89L414.908,133.89C401.76,133.89 391.085,144.565 391.085,157.713L391.085,905.837C391.085,918.985 401.76,929.66 414.908,929.66L1442.88,929.66C1456.03,929.66 1466.7,918.985 1466.7,905.837L1466.7,157.713Z" style="fill:white;"/>
    <g transform="matrix(1,0,0,1,-0.499183,0)">
        <circle cx="419.837" cy="167.232" r="9.923" style="fill:rgb(238,111,100);"/>
    </g>
    <g transform="matrix(1,0,0,1,27.8427,0)">
        <circle cx="419.837" cy="167.232" r="9.923" style="fill:rgb(247,193,84);"/>
    </g>
    <g transform="matrix(1,0,0,1,57.2887,0)">
        <circle cx="419.837" cy="167.232" r="9.923" style="fill:rgb(102,199,89);"/>
    </g>
    <g transform="matrix(6.8594,0,0,1,-2291.52,0)">
        <rect x="391.085" y="196.123" width="152.916" height="4.199" style="fill:rgb(238,239,238);"/>
    </g>
    <rect x="391.085" y="200.322" width="1048.91" height="699.678" style="fill:rgb(243,244,246);"/>
    <g transform="matrix(1.93271,0,0,1.97216,498.629,304.029)">
        <path d="M3,8L10.891,13.26C11.562,13.708 12.438,13.708 13.109,13.26L21,8M5,19L19,19C20.105,19 21,18.105 21,17L21,7C21,5.895 20.105,5 19,5L5,5C3.895,5 3,5.895 3,7L3,17C3,18.105 3.895,19 5,19Z" style="fill:none;fill-rule:nonzero;stroke:rgb(41,41,41);stroke-width:2px;"/>
    </g>
    <g transform="matrix(1.93271,0,0,1.97216,498.629,304.029)">
        <path d="M63,17L68,17L66.595,15.595C66.214,15.214 66,14.697 66,14.159L66,11C66,8.388 64.33,6.165 62,5.341L62,5C62,3.895 61.105,3 60,3C58.895,3 58,3.895 58,5L58,5.341C55.67,6.165 54,8.388 54,11L54,14.159C54,14.697 53.786,15.214 53.405,15.595L52,17L57,17M63,17L63,18C63,19.657 61.657,21 60,21C58.343,21 57,19.657 57,18L57,17M63,17L57,17" style="fill:none;fill-rule:nonzero;stroke:rgb(41,41,41);stroke-width:2px;"/>
    </g>
    <g transform="matrix(1.93271,0,0,1.97216,498.629,304.029)">
        <path d="M99,12L101,10M101,10L108,3L115,10M101,10L101,20C101,20.552 101.448,21 102,21L105,21M115,10L117,12M115,10L115,20C115,20.552 114.552,21 114,21L111,21M105,21C105.552,21 106,20.552 106,20L106,16C106,15.448 106.448,15 107,15L109,15C109.552,15 110,15.448 110,16L110,20C110,20.552 110.448,21 111,21M105,21L111,21" style="fill:none;fill-rule:nonzero;stroke:rgb(41,41,41);stroke-width:2px;"/>
    </g>
    <g transform="matrix(1.93271,0,0,1.97216,498.629,304.029)">
        <path d="M165,13.255C162.221,14.381 159.183,15 156,15C152.817,15 149.779,14.381 147,13.255M160,6L160,4C160,2.895 159.105,2 158,2L154,2C152.895,2 152,2.895 152,4L152,6M156,12L156.01,12M149,20L163,20C164.105,20 165,19.105 165,18L165,8C165,6.895 164.105,6 163,6L149,6C147.895,6 147,6.895 147,8L147,18C147,19.105 147.895,20 149,20Z" style="fill:none;fill-rule:nonzero;stroke:rgb(41,41,41);stroke-width:2px;"/>
    </g>
    <g transform="matrix(1.93271,0,0,1.97216,498.629,304.029)">
        <path d="M201,12L203,14L207,10M212.618,5.984C212.413,5.995 212.207,6 212,6C208.927,6 206.123,4.845 204,2.944C201.877,4.844 199.073,6 196,6C195.793,6 195.587,5.995 195.382,5.984C195.133,6.948 195,7.958 195,9C195,14.592 198.824,19.29 204,20.622C209.176,19.29 213,14.592 213,9C213,7.958 212.867,6.948 212.618,5.984Z" style="fill:none;fill-rule:nonzero;stroke:rgb(41,41,41);stroke-width:2px;"/>
    </g>
    <g transform="matrix(1.93271,0,0,1.97216,498.629,304.029)">
        <path d="M260.618,5.984C260.413,5.995 260.207,6 260,6C256.927,6 254.123,4.845 252,2.944C249.877,4.844 247.073,6 244,6C243.793,6 243.587,5.995 243.382,5.984C243.133,6.948 243,7.958 243,9C243,14.592 246.824,19.29 252,20.622C257.176,19.29 261,14.592 261,9C261,7.958 260.867,6.948 260.618,5.984Z" style="fill:none;fill-rule:nonzero;stroke:rgb(41,41,41);stroke-width:2px;"/>
    </g>
    <g transform="matrix(1.93271,0,0,1.97216,498.629,304.029)">
        <path d="M252,9L252,11M252,15L252.01,15" style="fill:none;fill-rule:nonzero;stroke:rgb(41,41,41);stroke-width:2px;"/>
    </g>
    <g transform="matrix(1.93271,0,0,1.97216,498.629,304.029)">
        <path d="M298.325,4.317C298.751,2.561 301.249,2.561 301.675,4.317C301.951,5.452 303.251,5.99 304.248,5.383C305.791,4.442 307.558,6.209 306.617,7.752C306.01,8.749 306.548,10.049 307.683,10.325C309.439,10.751 309.439,13.249 307.683,13.675C306.548,13.951 306.01,15.251 306.617,16.248C307.558,17.791 305.791,19.558 304.248,18.617C303.251,18.01 301.951,18.548 301.675,19.683C301.249,21.439 298.751,21.439 298.325,19.683C298.049,18.548 296.749,18.01 295.752,18.617C294.209,19.558 292.442,17.791 293.383,16.248C293.99,15.251 293.452,13.951 292.317,13.675C290.561,13.249 290.561,10.751 292.317,10.325C293.452,10.049 293.99,8.749 293.383,7.752C292.442,6.209 294.209,4.442 295.752,5.383C296.749,5.99 298.049,5.452 298.325,4.317Z" style="fill:none;fill-rule:nonzero;stroke:rgb(41,41,41);stroke-width:2px;"/>
    </g>
    <g transform="matrix(1.93271,0,0,1.97216,498.629,304.029)">
        <path d="M303,12C303,13.657 301.657,15 300,15C298.343,15 297,13.657 297,12C297,10.343 298.343,9 300,9C301.657,9 303,10.343 303,12Z" style="fill:none;fill-rule:nonzero;stroke:rgb(41,41,41);stroke-width:2px;"/>
    </g>
    <g transform="matrix(1.93271,0,0,1.97216,498.629,304.029)">
        <path d="M341,13L345,17L355,7" style="fill:none;fill-rule:nonzero;stroke:rgb(41,41,41);stroke-width:2px;"/>
    </g>
    <g transform="matrix(1.93271,0,0,1.97216,498.629,304.029)">
        <path d="M387,5L399,5M393,3L393,5M394.048,14.5C392.521,12.918 391.281,11.057 390.412,9M396.5,18L403.5,18M395,21L400,11L405,21M396.751,5C395.783,10.77 392.07,15.61 387,18.129" style="fill:none;fill-rule:nonzero;stroke:rgb(41,41,41);stroke-width:2px;"/>
    </g>
    <g transform="matrix(1.93271,0,0,1.97216,498.629,304.029)">
        <path d="M449,9L449,7C449,5.895 448.105,5 447,5L437,5C435.895,5 435,5.895 435,7L435,13C435,14.105 435.895,15 437,15L439,15M441,19L451,19C452.105,19 453,18.105 453,17L453,11C453,9.895 452.105,9 451,9L441,9C439.895,9 439,9.895 439,11L439,17C439,18.105 439.895,19 441,19ZM448,14C448,15.105 447.105,16 446,16C444.895,16 444,15.105 444,14C444,12.895 444.895,12 446,12C447.105,12 448,12.895 448,14Z" style="fill:none;fill-rule:nonzero;stroke:rgb(41,41,41);stroke-width:2px;"/>
    </g>
    <g transform="matrix(1.93271,0,0,1.97216,498.629,304.029)">
        <path d="M17.657,64.657C16.72,65.594 14.762,67.552 13.414,68.9C12.633,69.681 11.368,69.681 10.587,68.9C9.262,67.576 7.342,65.655 6.343,64.657C3.219,61.533 3.219,56.467 6.343,53.343C9.467,50.219 14.533,50.219 17.657,53.343C20.781,56.467 20.781,61.533 17.657,64.657Z" style="fill:none;fill-rule:nonzero;stroke:rgb(41,41,41);stroke-width:2px;"/>
    </g>
    <g transform="matrix(1.93271,0,0,1.97216,498.629,304.029)">
        <path d="M15,59C15,60.657 13.657,62 12,62C10.343,62 9,60.657 9,59C9,57.343 10.343,56 12,56C13.657,56 15,57.343 15,59Z" style="fill:none;fill-rule:nonzero;stroke:rgb(41,41,41);stroke-width:2px;"/>
    </g>
    <g transform="matrix(1.93271,0,0,1.97216,498.629,304.029)">
        <path d="M64,55C64,57.209 62.209,59 60,59C57.791,59 56,57.209 56,55C56,52.791 57.791,51 60,51C62.209,51 64,52.791 64,55Z" style="fill:none;fill-rule:nonzero;stroke:rgb(41,41,41);stroke-width:2px;"/>
    </g>
    <g transform="matrix(1.93271,0,0,1.97216,498.629,304.029)">
        <path d="M60,62C56.134,62 53,65.134 53,69L67,69C67,65.134 63.866,62 60,62Z" style="fill:none;fill-rule:nonzero;stroke:rgb(41,41,41);stroke-width:2px;"/>
    </g>
    <g transform="matrix(1.93271,0,0,1.97216,498.629,304.029)">
        <path d="M108,52.354C108.733,51.524 109.805,51 111,51C113.209,51 115,52.791 115,55C115,57.209 113.209,59 111,59C109.805,59 108.733,58.476 108,57.646M111,69L99,69L99,68C99,64.686 101.686,62 105,62C108.314,62 111,64.686 111,68L111,69ZM111,69L117,69L117,68C117,64.686 114.314,62 111,62C109.907,62 108.883,62.292 108,62.803M109,55C109,57.209 107.209,59 105,59C102.791,59 101,57.209 101,55C101,52.791 102.791,51 105,51C107.209,51 109,52.791 109,55Z" style="fill:none;fill-rule:nonzero;stroke:rgb(41,41,41);stroke-width:2px;"/>
    </g>
    <g transform="matrix(1.93271,0,0,1.97216,498.629,304.029)">
        <path d="M161,68L166,68L166,66C166,64.343 164.657,63 163,63C162.044,63 161.193,63.447 160.644,64.143M161,68L151,68M161,68L161,66C161,65.344 160.874,64.717 160.644,64.143M151,68L146,68L146,66C146,64.343 147.343,63 149,63C149.956,63 150.807,63.447 151.356,64.143M151,68L151,66C151,65.344 151.126,64.717 151.356,64.143M151.356,64.143C152.094,62.301 153.895,61 156,61C158.105,61 159.906,62.301 160.644,64.143M159,55C159,56.657 157.657,58 156,58C154.343,58 153,56.657 153,55C153,53.343 154.343,52 156,52C157.657,52 159,53.343 159,55ZM165,58C165,59.105 164.105,60 163,60C161.895,60 161,59.105 161,58C161,56.895 161.895,56 163,56C164.105,56 165,56.895 165,58ZM151,58C151,59.105 150.105,60 149,60C147.895,60 147,59.105 147,58C147,56.895 147.895,56 149,56C150.105,56 151,56.895 151,58Z" style="fill:none;fill-rule:nonzero;stroke:rgb(41,41,41);stroke-width:2px;"/>
    </g>
    <g transform="matrix(1.93271,0,0,1.97216,498.629,304.029)">
        <path d="M211,69L211,53C211,51.895 210.105,51 209,51L199,51C197.895,51 197,51.895 197,53L197,69M211,69L213,69M211,69L206,69M197,69L195,69M197,69L202,69M201,55L202,55M201,59L202,59M206,55L207,55M206,59L207,59M202,69L202,64C202,63.448 202.448,63 203,63L205,63C205.552,63 206,63.448 206,64L206,69M202,69L206,69" style="fill:none;fill-rule:nonzero;stroke:rgb(41,41,41);stroke-width:2px;"/>
    </g>
    <g transform="matrix(1.93271,0,0,1.97216,498.629,304.029)">
        <path d="M243,54L246,55M246,55L243,64C244.773,65.333 247.229,65.333 249.001,64M246,55L249,64M246,55L252,53M258,55L261,54M258,55L255,64C256.773,65.333 259.229,65.333 261.001,64M258,55L261,64M258,55L252,53M252,51L252,53M252,69L252,53M252,69L249,69M252,69L255,69" style="fill:none;fill-rule:nonzero;stroke:rgb(41,41,41);stroke-width:2px;"/>
    </g>
    <g transform="matrix(1.93271,0,0,1.97216,498.629,304.029)">
        <path d="M299,53L294,53C292.895,53 292,53.895 292,55L292,66C292,67.105 292.895,68 294,68L305,68C306.105,68 307,67.105 307,66L307,61M305.586,51.586C306.367,50.805 307.633,50.805 308.414,51.586C309.195,52.367 309.195,53.633 308.414,54.414L299.828,63L297,63L297,60.172L305.586,51.586Z" style="fill:none;fill-rule:nonzero;stroke:rgb(41,41,41);stroke-width:2px;"/>
    </g>
    <g transform="matrix(1.93271,0,0,1.97216,498.629,304.029)">
        <path d="M356.268,51.732L356.975,51.025L356.268,51.732ZM342.5,69.036L342.5,70.036C342.765,70.036 343.02,69.93 343.207,69.743L342.5,69.036ZM339,69.036L338,69.036C338,69.588 338.448,70.036 339,70.036L339,69.036ZM339,65.464L338.293,64.757C338.105,64.945 338,65.199 338,65.464L339,65.464ZM353.439,52.439C354.025,51.854 354.975,51.854 355.561,52.439L356.975,51.025C355.608,49.658 353.392,49.658 352.025,51.025L353.439,52.439ZM355.561,52.439C356.146,53.025 356.146,53.975 355.561,54.561L356.975,55.975C358.342,54.608 358.342,52.392 356.975,51.025L355.561,52.439ZM355.561,54.561L341.793,68.328L343.207,69.743L356.975,55.975L355.561,54.561ZM342.5,68.036L339,68.036L339,70.036L342.5,70.036L342.5,68.036ZM352.025,51.025L338.293,64.757L339.707,66.172L353.439,52.439L352.025,51.025ZM338,65.464L338,69.036L340,69.036L340,65.464L338,65.464ZM350.525,53.939L354.061,57.475L355.475,56.061L351.939,52.525L350.525,53.939Z" style="fill:rgb(41,41,41);fill-rule:nonzero;"/>
    </g>
    <g transform="matrix(1.93271,0,0,1.97216,498.629,304.029)">
        <path d="M399,60C399,61.657 397.657,63 396,63C394.343,63 393,61.657 393,60C393,58.343 394.343,57 396,57C397.657,57 399,58.343 399,60Z" style="fill:none;fill-rule:nonzero;stroke:rgb(41,41,41);stroke-width:2px;"/>
    </g>
    <g transform="matrix(1.93271,0,0,1.97216,498.629,304.029)">
        <path d="M386.458,60C387.733,55.943 391.523,53 396,53C400.478,53 404.268,55.943 405.543,60C404.268,64.057 400.478,67 396,67C391.523,67 387.733,64.057 386.458,60Z" style="fill:none;fill-rule:nonzero;stroke:rgb(41,41,41);stroke-width:2px;"/>
    </g>
    <g transform="matrix(1.93271,0,0,1.97216,498.629,304.029)">
        <path d="M437,53C437,51.895 437.895,51 439,51L449,51C450.105,51 451,51.895 451,53L451,69L444,65.5L437,69L437,53Z" style="fill:none;fill-rule:nonzero;stroke:rgb(41,41,41);stroke-width:2px;"/>
    </g>
    <g transform="matrix(1.93271,0,0,1.97216,498.629,304.029)">
        <path d="M7,117C4.791,117 3,115.209 3,113L3,101C3,99.895 3.895,99 5,99L9,99C10.105,99 11,99.895 11,101L11,113C11,115.209 9.209,117 7,117ZM7,117L19,117C20.105,117 21,116.105 21,115L21,111C21,109.895 20.105,109 19,109L16.657,109M11,103.343L12.657,101.686C13.438,100.905 14.704,100.905 15.485,101.686L18.314,104.515C19.095,105.296 19.095,106.562 18.314,107.343L9.828,115.828M7,113L7.01,113" style="fill:none;fill-rule:nonzero;stroke:rgb(41,41,41);stroke-width:2px;"/>
    </g>
    <g transform="matrix(1.93271,0,0,1.97216,498.629,304.029)">
        <path d="M68,109L68,102C68,100.895 67.105,100 66,100L54,100C52.895,100 52,100.895 52,102L52,109M68,109L68,114C68,115.105 67.105,116 66,116L54,116C52.895,116 52,115.105 52,114L52,109M68,109L65.414,109C65.149,109 64.895,109.105 64.707,109.293L62.293,111.707C62.105,111.895 61.851,112 61.586,112L58.414,112C58.149,112 57.895,111.895 57.707,111.707L55.293,109.293C55.105,109.105 54.851,109 54.586,109L52,109" style="fill:none;fill-rule:nonzero;stroke:rgb(41,41,41);stroke-width:2px;"/>
    </g>
    <g transform="matrix(1.93271,0,0,1.97216,498.629,304.029)">
        <path d="M104,100L102,100C100.895,100 100,100.895 100,102L100,114C100,115.105 100.895,116 102,116L114,116C115.105,116 116,115.105 116,114L116,102C116,100.895 115.105,100 114,100L112,100M108,99L108,107M108,107L111,104M108,107L105,104M100,109L102.586,109C102.851,109 103.105,109.105 103.293,109.293L105.707,111.707C105.895,111.895 106.149,112 106.414,112L109.586,112C109.851,112 110.105,111.895 110.293,111.707L112.707,109.293C112.895,109.105 113.149,109 113.414,109L116,109" style="fill:none;fill-rule:nonzero;stroke:rgb(41,41,41);stroke-width:2px;"/>
    </g>
    <g transform="matrix(1.93271,0,0,1.97216,498.629,304.029)">
        <path d="M149,104L163,104M149,104C147.895,104 147,103.105 147,102C147,100.895 147.895,100 149,100L163,100C164.105,100 165,100.895 165,102C165,103.105 164.105,104 163,104M149,104L149,114C149,115.105 149.895,116 151,116L161,116C162.105,116 163,115.105 163,114L163,104M154,108L158,108" style="fill:none;fill-rule:nonzero;stroke:rgb(41,41,41);stroke-width:2px;"/>
    </g>
    <g transform="matrix(1.93271,0,0,1.97216,498.629,304.029)">
        <path d="M204,104L204,108L207,111M213,108C213,112.971 208.971,117 204,117C199.029,117 195,112.971 195,108C195,103.029 199.029,99 204,99C208.971,99 213,103.029 213,108Z" style="fill:none;fill-rule:nonzero;stroke:rgb(41,41,41);stroke-width:2px;"/>
    </g>
    <g transform="matrix(1.93271,0,0,1.97216,498.629,304.029)">
        <path d="M244,112L248.586,107.414C249.367,106.633 250.633,106.633 251.414,107.414L256,112M254,110L255.586,108.414C256.367,107.633 257.633,107.633 258.414,108.414L260,110M254,104L254.01,104M246,116L258,116C259.105,116 260,115.105 260,114L260,102C260,100.895 259.105,100 258,100L246,100C244.895,100 244,100.895 244,102L244,114C244,115.105 244.895,116 246,116Z" style="fill:none;fill-rule:nonzero;stroke:rgb(41,41,41);stroke-width:2px;"/>
    </g>
    <g transform="matrix(1.93271,0,0,1.97216,498.629,304.029)">
        <path d="M295,103L295.01,103M295,99L300,99C300.512,99 301.024,99.195 301.414,99.586L308.414,106.586C309.195,107.367 309.195,108.633 308.414,109.414L301.414,116.414C300.633,117.195 299.367,117.195 298.586,116.414L291.586,109.414C291.195,109.024 291,108.512 291,108L291,103C291,100.791 292.791,99 295,99Z" style="fill:none;fill-rule:nonzero;stroke:rgb(41,41,41);stroke-width:2px;"/>
    </g>
    <g transform="matrix(1.93271,0,0,1.97216,498.629,304.029)">
        <path d="M339,101C339,99.895 339.895,99 341,99L344.279,99C344.71,99 345.092,99.275 345.228,99.684L346.726,104.177C346.883,104.649 346.669,105.165 346.224,105.388L343.967,106.516C345.069,108.961 347.039,110.931 349.484,112.033L350.612,109.776C350.835,109.331 351.351,109.117 351.823,109.274L356.316,110.772C356.725,110.908 357,111.29 357,111.721L357,115C357,116.105 356.105,117 355,117L354,117C345.716,117 339,110.284 339,102L339,101Z" style="fill:none;fill-rule:nonzero;stroke:rgb(41,41,41);stroke-width:2px;"/>
    </g>
    <g transform="matrix(1.93271,0,0,1.97216,498.629,304.029)">
        <path d="M400,99L405,99M405,99L405,104M405,99L399,105M389,99C387.895,99 387,99.895 387,101L387,102C387,110.284 393.716,117 402,117L403,117C404.105,117 405,116.105 405,115L405,111.721C405,111.29 404.725,110.908 404.316,110.772L399.823,109.274C399.351,109.117 398.835,109.331 398.612,109.776L397.484,112.033C395.039,110.931 393.069,108.961 391.967,106.516L394.224,105.388C394.669,105.165 394.883,104.649 394.726,104.177L393.228,99.684C393.092,99.275 392.71,99 392.279,99L389,99Z" style="fill:none;fill-rule:nonzero;stroke:rgb(41,41,41);stroke-width:2px;"/>
    </g>
    <g transform="matrix(1.93271,0,0,1.97216,498.629,304.029)">
        <path d="M453,99L447,105M447,105L447,100M447,105L452,105M437,99C435.895,99 435,99.895 435,101L435,102C435,110.284 441.716,117 450,117L451,117C452.105,117 453,116.105 453,115L453,111.721C453,111.29 452.725,110.908 452.316,110.772L447.823,109.274C447.351,109.117 446.835,109.331 446.612,109.776L445.484,112.033C443.039,110.931 441.069,108.961 439.967,106.516L442.224,105.388C442.669,105.165 442.883,104.649 442.726,104.177L441.228,99.684C441.092,99.275 440.71,99 440.279,99L437,99Z" style="fill:none;fill-rule:nonzero;stroke:rgb(41,41,41);stroke-width:2px;"/>
    </g>
    <g transform="matrix(1.93271,0,0,1.97216,498.629,304.029)">
        <path d="M4,150L20,150M4,156L20,156M4,162L20,162" style="fill:none;fill-rule:nonzero;stroke:rgb(41,41,41);stroke-width:2px;"/>
    </g>
    <g transform="matrix(1.93271,0,0,1.97216,498.629,304.029)">
        <path d="M52,150L68,150M52,156L60,156M52,162L68,162" style="fill:none;fill-rule:nonzero;stroke:rgb(41,41,41);stroke-width:2px;"/>
    </g>
    <g transform="matrix(1.93271,0,0,1.97216,498.629,304.029)">
        <path d="M100,150L116,150M100,156L116,156M100,162L107,162" style="fill:none;fill-rule:nonzero;stroke:rgb(41,41,41);stroke-width:2px;"/>
    </g>
    <g transform="matrix(1.93271,0,0,1.97216,498.629,304.029)">
        <path d="M148,150L164,150M148,156L164,156M157,162L164,162" style="fill:none;fill-rule:nonzero;stroke:rgb(41,41,41);stroke-width:2px;"/>
    </g>
    <g transform="matrix(1.93271,0,0,1.97216,498.629,304.029)">
        <path d="M196,152L212,152M196,160L212,160" style="fill:none;fill-rule:nonzero;stroke:rgb(41,41,41);stroke-width:2px;"/>
    </g>
    <g transform="matrix(1.93271,0,0,1.97216,498.629,304.029)">
        <path d="M247,160L247,148M247,148L243,152M247,148L251,152M257,152L257,164M257,164L261,160M257,164L253,160" style="fill:none;fill-rule:nonzero;stroke:rgb(41,41,41);stroke-width:2px;"/>
    </g>
    <g transform="matrix(1.93271,0,0,1.97216,498.629,304.029)">
        <path d="M296,151L308,151M308,151L304,147M308,151L304,155M304,161L292,161M292,161L296,165M292,161L296,157" style="fill:none;fill-rule:nonzero;stroke:rgb(41,41,41);stroke-width:2px;"/>
    </g>
    <g transform="matrix(1.93271,0,0,1.97216,498.629,304.029)">
        <path d="M342,162L354,150M342,150L354,162" style="fill:none;fill-rule:nonzero;stroke:rgb(41,41,41);stroke-width:2px;"/>
    </g>
    <g transform="matrix(1.93271,0,0,1.97216,498.629,304.029)">
        <path d="M396,148L396,164M404,156L388,156" style="fill:none;fill-rule:nonzero;stroke:rgb(41,41,41);stroke-width:2px;"/>
    </g>
    <g transform="matrix(1.93271,0,0,1.97216,498.629,304.029)">
        <path d="M436,148L436,153L436.582,153M451.938,155C451.446,151.054 448.08,148 444,148C440.643,148 437.768,150.068 436.582,153M436.582,153L441,153M452,164L452,159L451.418,159M451.418,159C450.232,161.932 447.357,164 444,164C439.92,164 436.554,160.946 436.062,157M451.418,159L447,159" style="fill:none;fill-rule:nonzero;stroke:rgb(41,41,41);stroke-width:2px;"/>
    </g>
    <g transform="matrix(1.93271,0,0,1.97216,498.629,304.029)">
        <path d="M8.228,201C8.777,199.835 10.258,199 12,199C14.209,199 16,200.343 16,202C16,203.399 14.722,204.575 12.994,204.907C12.452,205.011 12,205.448 12,206M12,209L12.01,209M21,204C21,208.971 16.971,213 12,213C7.029,213 3,208.971 3,204C3,199.029 7.029,195 12,195C16.971,195 21,199.029 21,204Z" style="fill:none;fill-rule:nonzero;stroke:rgb(41,41,41);stroke-width:2px;"/>
    </g>
    <g transform="matrix(1.93271,0,0,1.97216,498.629,304.029)">
        <path d="M60,201L60,203M60,207L60.01,207M53.072,211L66.928,211C68.468,211 69.43,209.333 68.66,208L61.732,196C60.962,194.667 59.038,194.667 58.268,196L51.34,208C50.57,209.333 51.532,211 53.072,211Z" style="fill:none;fill-rule:nonzero;stroke:rgb(41,41,41);stroke-width:2px;"/>
    </g>
    <g transform="matrix(1.93271,0,0,1.97216,498.629,304.029)">
        <path d="M104,209C101.239,209 99,206.761 99,204C99,201.552 100.76,199.514 103.084,199.084C103.514,196.76 105.552,195 108,195C110.448,195 112.486,196.76 112.916,199.084C115.24,199.514 117,201.552 117,204C117,206.761 114.761,209 112,209M105,204L108,201M108,201L111,204M108,201L108,213" style="fill:none;fill-rule:nonzero;stroke:rgb(41,41,41);stroke-width:2px;"/>
    </g>
    <g transform="matrix(1.93271,0,0,1.97216,498.629,304.029)">
        <path d="M152,208C149.239,208 147,205.761 147,203C147,200.552 148.76,198.514 151.084,198.084C151.514,195.76 153.552,194 156,194C158.448,194 160.486,195.76 160.916,198.084C163.24,198.514 165,200.552 165,203C165,205.761 162.761,208 160,208M153,211L156,214M156,214L159,211M156,214L156,202" style="fill:none;fill-rule:nonzero;stroke:rgb(41,41,41);stroke-width:2px;"/>
    </g>
    <g transform="matrix(1.93271,0,0,1.97216,498.629,304.029)">
        <path d="M203,195.055C198.5,195.552 195,199.367 195,204C195,208.971 199.029,213 204,213C208.633,213 212.448,209.5 212.945,205L203,205L203,195.055Z" style="fill:none;fill-rule:nonzero;stroke:rgb(41,41,41);stroke-width:2px;"/>
    </g>
    <g transform="matrix(1.93271,0,0,1.97216,498.629,304.029)">
        <path d="M212.488,201L207,201L207,195.512C209.557,196.416 211.584,198.443 212.488,201Z" style="fill:none;fill-rule:nonzero;stroke:rgb(41,41,41);stroke-width:2px;"/>
    </g>
    <g transform="matrix(1.93271,0,0,1.97216,498.629,304.029)">
        <path d="M247,213L257,213C258.105,213 259,212.105 259,211L259,201.414C259,201.149 258.895,200.895 258.707,200.707L253.293,195.293C253.105,195.105 252.851,195 252.586,195L247,195C245.895,195 245,195.895 245,197L245,211C245,212.105 245.895,213 247,213Z" style="fill:none;fill-rule:nonzero;stroke:rgb(41,41,41);stroke-width:2px;"/>
    </g>
    <g transform="matrix(1.93271,0,0,1.97216,498.629,304.029)">
        <path d="M300,202L300,208M300,208L297,205M300,208L303,205M305,213L295,213C293.895,213 293,212.105 293,211L293,197C293,195.895 293.895,195 295,195L300.586,195C300.851,195 301.105,195.105 301.293,195.293L306.707,200.707C306.895,200.895 307,201.149 307,201.414L307,211C307,212.105 306.105,213 305,213Z" style="fill:none;fill-rule:nonzero;stroke:rgb(41,41,41);stroke-width:2px;"/>
    </g>
    <g transform="matrix(1.93271,0,0,1.97216,498.629,304.029)">
        <path d="M345,205L351,205M348,202L348,208M353,213L343,213C341.895,213 341,212.105 341,211L341,197C341,195.895 341.895,195 343,195L348.586,195C348.851,195 349.105,195.105 349.293,195.293L354.707,200.707C354.895,200.895 355,201.149 355,201.414L355,211C355,212.105 354.105,213 353,213Z" style="fill:none;fill-rule:nonzero;stroke:rgb(41,41,41);stroke-width:2px;"/>
    </g>
    <g transform="matrix(1.93271,0,0,1.97216,498.629,304.029)">
        <path d="M393,205L399,205M401,213L391,213C389.895,213 389,212.105 389,211L389,197C389,195.895 389.895,195 391,195L396.586,195C396.851,195 397.105,195.105 397.293,195.293L402.707,200.707C402.895,200.895 403,201.149 403,201.414L403,211C403,212.105 402.105,213 401,213Z" style="fill:none;fill-rule:nonzero;stroke:rgb(41,41,41);stroke-width:2px;"/>
    </g>
    <g transform="matrix(1.93271,0,0,1.97216,498.629,304.029)">
        <path d="M440,199L440,195M448,199L448,195M439,203L449,203M437,213L451,213C452.105,213 453,212.105 453,211L453,199C453,197.895 452.105,197 451,197L437,197C435.895,197 435,197.895 435,199L435,211C435,212.105 435.895,213 437,213Z" style="fill:none;fill-rule:nonzero;stroke:rgb(41,41,41);stroke-width:2px;"/>
    </g>
    <g transform="matrix(1.93271,0,0,1.97216,498.629,304.029)">
        <path d="M3,249C3,247.895 3.895,247 5,247L5.93,247C6.598,247 7.223,246.666 7.594,246.109L8.406,244.891C8.777,244.334 9.402,244 10.07,244L13.93,244C14.598,244 15.223,244.334 15.594,244.891L16.406,246.109C16.777,246.666 17.402,247 18.07,247L19,247C20.105,247 21,247.895 21,249L21,258C21,259.105 20.105,260 19,260L5,260C3.895,260 3,259.105 3,258L3,249Z" style="fill:none;fill-rule:nonzero;stroke:rgb(41,41,41);stroke-width:2px;"/>
    </g>
    <g transform="matrix(1.93271,0,0,1.97216,498.629,304.029)">
        <path d="M15,253C15,254.657 13.657,256 12,256C10.343,256 9,254.657 9,253C9,251.343 10.343,250 12,250C13.657,250 15,251.343 15,253Z" style="fill:none;fill-rule:nonzero;stroke:rgb(41,41,41);stroke-width:2px;"/>
    </g>
    <g transform="matrix(1.93271,0,0,1.97216,498.629,304.029)">
        <path d="M69,252C69,256.971 64.971,261 60,261M69,252C69,247.029 64.971,243 60,243M69,252L51,252M60,261C55.029,261 51,256.971 51,252M60,261C61.657,261 63,256.971 63,252C63,247.029 61.657,243 60,243M60,261C58.343,261 57,256.971 57,252C57,247.029 58.343,243 60,243M51,252C51,247.029 55.029,243 60,243" style="fill:none;fill-rule:nonzero;stroke:rgb(41,41,41);stroke-width:2px;"/>
    </g>
    <g transform="matrix(1.93271,0,0,1.97216,498.629,304.029)">
        <path d="M104,256L102,256C100.895,256 100,255.105 100,254L100,246C100,244.895 100.895,244 102,244L110,244C111.105,244 112,244.895 112,246L112,248M106,260L114,260C115.105,260 116,259.105 116,258L116,250C116,248.895 115.105,248 114,248L106,248C104.895,248 104,248.895 104,250L104,258C104,259.105 104.895,260 106,260Z" style="fill:none;fill-rule:nonzero;stroke:rgb(41,41,41);stroke-width:2px;"/>
    </g>
    <g transform="matrix(1.93271,0,0,1.97216,498.629,304.029)">
        <path d="M152.684,253.342C152.886,252.938 153,252.482 153,252C153,251.518 152.886,251.062 152.684,250.658M152.684,253.342C152.191,254.325 151.174,255 150,255C148.343,255 147,253.657 147,252C147,250.343 148.343,249 150,249C151.174,249 152.191,249.675 152.684,250.658M152.684,253.342L159.316,256.658M152.684,250.658L159.316,247.342M159.316,247.342C159.809,248.325 160.826,249 162,249C163.657,249 165,247.657 165,246C165,244.343 163.657,243 162,243C160.343,243 159,244.343 159,246C159,246.482 159.114,246.938 159.316,247.342ZM159.316,256.658C159.114,257.062 159,257.518 159,258C159,259.657 160.343,261 162,261C163.657,261 165,259.657 165,258C165,256.343 163.657,255 162,255C160.826,255 159.809,255.675 159.316,256.658Z" style="fill:none;fill-rule:nonzero;stroke:rgb(41,41,41);stroke-width:2px;"/>
    </g>
    <g transform="matrix(1.93271,0,0,1.97216,498.629,304.029)">
        <path d="M196.318,246.318C194.561,248.075 194.561,250.925 196.318,252.682L204,260.364L211.682,252.682C213.439,250.925 213.439,248.075 211.682,246.318C209.925,244.561 207.075,244.561 205.318,246.318L204,247.636L202.682,246.318C200.925,244.561 198.075,244.561 196.318,246.318Z" style="fill:none;fill-rule:nonzero;stroke:rgb(41,41,41);stroke-width:2px;"/>
    </g>
    <g transform="matrix(1.93271,0,0,1.97216,498.629,304.029)">
        <path d="M243.055,251L245,251C246.105,251 247,251.895 247,253L247,254C247,255.105 247.895,256 249,256C250.105,256 251,256.895 251,258L251,260.945M248,243.936L248,245.5C248,246.881 249.119,248 250.5,248L251,248C252.105,248 253,248.895 253,250C253,251.105 253.895,252 255,252C256.105,252 257,251.105 257,250C257,248.895 257.895,248 259,248L260.064,248M255,260.488L255,258C255,256.895 255.895,256 257,256L260.064,256M261,252C261,256.971 256.971,261 252,261C247.029,261 243,256.971 243,252C243,247.029 247.029,243 252,243C256.971,243 261,247.029 261,252Z" style="fill:none;fill-rule:nonzero;stroke:rgb(41,41,41);stroke-width:2px;"/>
    </g>
    <g transform="matrix(1.93271,0,0,1.97216,498.629,304.029)">
        <path d="M303.536,248.464C305.488,250.417 305.488,253.583 303.536,255.536M306.364,245.636C309.879,249.151 309.879,254.849 306.364,258.364M293.586,255L292,255C291.448,255 291,254.552 291,254L291,250C291,249.448 291.448,249 292,249L293.586,249L298.293,244.293C298.923,243.663 300,244.109 300,245L300,259C300,259.891 298.923,260.337 298.293,259.707L293.586,255Z" style="fill:none;fill-rule:nonzero;stroke:rgb(41,41,41);stroke-width:2px;"/>
    </g>
    <g transform="matrix(1.93271,0,0,1.97216,498.629,304.029)">
        <path d="M341.586,255L340,255C339.448,255 339,254.552 339,254L339,250C339,249.448 339.448,249 340,249L341.586,249L346.293,244.293C346.923,243.663 348,244.109 348,245L348,259C348,259.891 346.923,260.337 346.293,259.707L341.586,255Z" style="fill:none;stroke:rgb(41,41,41);stroke-width:2px;"/>
    </g>
    <g transform="matrix(1.93271,0,0,1.97216,498.629,304.029)">
        <path d="M353,254L355,252M355,252L357,250M355,252L353,250M355,252L357,254" style="fill:none;fill-rule:nonzero;stroke:rgb(41,41,41);stroke-width:2px;"/>
    </g>
    <g transform="matrix(1.93271,0,0,1.97216,498.629,304.029)">
        <path d="M396,246L396,244M396,246C394.895,246 394,246.895 394,248C394,249.105 394.895,250 396,250M396,246C397.105,246 398,246.895 398,248C398,249.105 397.105,250 396,250M390,258C391.105,258 392,257.105 392,256C392,254.895 391.105,254 390,254M390,258C388.895,258 388,257.105 388,256C388,254.895 388.895,254 390,254M390,258L390,260M390,254L390,244M396,250L396,260M402,258C403.105,258 404,257.105 404,256C404,254.895 403.105,254 402,254M402,258C400.895,258 400,257.105 400,256C400,254.895 400.895,254 402,254M402,258L402,260M402,254L402,244" style="fill:none;fill-rule:nonzero;stroke:rgb(41,41,41);stroke-width:2px;"/>
    </g>
    <g transform="matrix(1.93271,0,0,1.97216,498.629,304.029)">
        <path d="M445.828,250.172C444.266,248.609 441.734,248.609 440.172,250.172L436.172,254.172C434.609,255.734 434.609,258.266 436.172,259.828C437.734,261.391 440.266,261.391 441.828,259.828L442.93,258.727M442.172,253.828C443.734,255.391 446.266,255.391 447.828,253.828L451.828,249.828C453.391,248.266 453.391,245.734 451.828,244.172C450.266,242.609 447.734,242.609 446.172,244.172L445.072,245.271" style="fill:none;fill-rule:nonzero;stroke:rgb(41,41,41);stroke-width:2px;"/>
    </g>
    <g transform="matrix(1.93271,0,0,1.97216,498.629,304.029)">
        <path d="M3,306.796L3,297.867C3,297.198 3.334,296.573 3.891,296.203L10.891,291.536C11.562,291.088 12.438,291.088 13.109,291.536L20.109,296.203C20.666,296.573 21,297.198 21,297.867L21,306.796M3,306.796C3,307.901 3.895,308.796 5,308.796L19,308.796C20.105,308.796 21,307.901 21,306.796M3,306.796L9.75,302.296M21,306.796L14.25,302.296M3,297.796L9.75,302.296M21,297.796L14.25,302.296M14.25,302.296L13.109,303.057C12.438,303.505 11.562,303.505 10.891,303.057L9.75,302.296" style="fill:none;fill-rule:nonzero;stroke:rgb(41,41,41);stroke-width:2px;"/>
    </g>
    <g transform="matrix(1.93271,0,0,1.97216,498.629,304.029)">
        <path d="M56,295L56,303C56,304.105 56.895,305 58,305L64,305M56,295L56,293C56,291.895 56.895,291 58,291L62.586,291C62.851,291 63.105,291.105 63.293,291.293L67.707,295.707C67.895,295.895 68,296.149 68,296.414L68,303C68,304.105 67.105,305 66,305L64,305M56,295L54,295C52.895,295 52,295.895 52,297L52,307C52,308.105 52.895,309 54,309L62,309C63.105,309 64,308.105 64,307L64,305" style="fill:none;fill-rule:nonzero;stroke:rgb(41,41,41);stroke-width:2px;"/>
    </g>
    <g transform="matrix(1.93271,0,0,1.97216,498.629,304.029)">
        <path d="M99,298L117,298M103,303L104,303M108,303L109,303M102,307L114,307C115.657,307 117,305.657 117,304L117,296C117,294.343 115.657,293 114,293L102,293C100.343,293 99,294.343 99,296L99,304C99,305.657 100.343,307 102,307Z" style="fill:none;fill-rule:nonzero;stroke:rgb(41,41,41);stroke-width:2px;"/>
    </g>
    <g transform="matrix(1.93271,0,0,1.97216,498.629,304.029)">
        <path d="M160,299L160,300L161,300L161,299L160,299ZM152,299L151,299L151,300L152,300L152,299ZM157,303C157,302.448 156.552,302 156,302C155.448,302 155,302.448 155,303L157,303ZM155,305C155,305.552 155.448,306 156,306C156.552,306 157,305.552 157,305L155,305ZM150,300L162,300L162,298L150,298L150,300ZM163,301L163,307L165,307L165,301L163,301ZM162,308L150,308L150,310L162,310L162,308ZM149,307L149,301L147,301L147,307L149,307ZM150,308C149.448,308 149,307.552 149,307L147,307C147,308.657 148.343,310 150,310L150,308ZM163,307C163,307.552 162.552,308 162,308L162,310C163.657,310 165,308.657 165,307L163,307ZM162,300C162.552,300 163,300.448 163,301L165,301C165,299.343 163.657,298 162,298L162,300ZM150,298C148.343,298 147,299.343 147,301L149,301C149,300.448 149.448,300 150,300L150,298ZM159,295L159,299L161,299L161,295L159,295ZM160,298L152,298L152,300L160,300L160,298ZM153,299L153,295L151,295L151,299L153,299ZM156,292C157.657,292 159,293.343 159,295L161,295C161,292.239 158.761,290 156,290L156,292ZM156,290C153.239,290 151,292.239 151,295L153,295C153,293.343 154.343,292 156,292L156,290ZM155,303L155,305L157,305L157,303L155,303Z" style="fill:rgb(41,41,41);fill-rule:nonzero;"/>
    </g>
    <g transform="matrix(1.93271,0,0,1.97216,498.629,304.029)">
        <path d="M205,295L213,295M213,295L213,303M213,295L205,303L201,299L195,305" style="fill:none;fill-rule:nonzero;stroke:rgb(41,41,41);stroke-width:2px;"/>
    </g>
    <g transform="matrix(1.93271,0,0,1.97216,498.629,304.029)">
        <path d="M253,305L261,305M261,305L261,297M261,305L253,297L249,301L243,295" style="fill:none;fill-rule:nonzero;stroke:rgb(41,41,41);stroke-width:2px;"/>
    </g>
    <g transform="matrix(1.93271,0,0,1.97216,498.629,304.029)">
        <path d="M291,292C291,291.448 291.448,291 292,291L308,291C308.552,291 309,291.448 309,292L309,294.586C309,294.851 308.895,295.105 308.707,295.293L302.293,301.707C302.105,301.895 302,302.149 302,302.414L302,305L298,309L298,302.414C298,302.149 297.895,301.895 297.707,301.707L291.293,295.293C291.105,295.105 291,294.851 291,294.586L291,292Z" style="fill:none;fill-rule:nonzero;stroke:rgb(41,41,41);stroke-width:2px;"/>
    </g>
    <g transform="matrix(1.93271,0,0,1.97216,498.629,304.029)">
        <path d="M352,300C352,297.791 350.209,296 348,296C345.791,296 344,297.791 344,300C344,302.209 345.791,304 348,304C350.209,304 352,302.209 352,300ZM352,300L352,301.5C352,302.881 353.119,304 354.5,304C355.881,304 357,302.881 357,301.5L357,300C357,295.029 352.971,291 348,291C343.029,291 339,295.029 339,300C339,304.971 343.029,309 348,309M352.5,307.794C351.08,308.614 349.53,309.003 348,309.001" style="fill:none;fill-rule:nonzero;stroke:rgb(41,41,41);stroke-width:2px;"/>
    </g>
    <g transform="matrix(1.93271,0,0,1.97216,498.629,304.029)">
        <path d="M403,295L402.133,307.142C402.058,308.189 401.187,309 400.138,309L391.862,309C390.813,309 389.942,308.189 389.867,307.142L389,295M394,299L394,305M398,299L398,305M399,295L399,292C399,291.448 398.552,291 398,291L394,291C393.448,291 393,291.448 393,292L393,295M388,295L404,295" style="fill:none;fill-rule:nonzero;stroke:rgb(41,41,41);stroke-width:2px;"/>
    </g>
    <g transform="matrix(1.93271,0,0,1.97216,498.629,304.029)">
        <path d="M445,304L444,304L444,300L443,300M444,296L444.01,296M453,300C453,304.971 448.971,309 444,309C439.029,309 435,304.971 435,300C435,295.029 439.029,291 444,291C448.971,291 453,295.029 453,300Z" style="fill:none;fill-rule:nonzero;stroke:rgb(41,41,41);stroke-width:2px;"/>
    </g>
</svg>
